<svg width="154.32" xmlns="http://www.w3.org/2000/svg" height="140.549" id="screenshot-0417c105-bb93-80f1-8006-c7eb895b01a8" viewBox="2586.433 2229.32 154.32 140.549" xmlns:xlink="http://www.w3.org/1999/xlink" fill="none" version="1.1"><g id="shape-0417c105-bb93-80f1-8006-c7eb895b01a8"><g class="fills" id="fills-0417c105-bb93-80f1-8006-c7eb895b01a8"><path d="M2674.458984375,2249.101318359375C2670.782470703125,2248.728271484375,2667.070556640625,2248.13134765625,2663.39404296875,2248.056884765625C2653.7783203125,2247.795654296875,2644.374755859375,2249.735595703125,2634.900634765625,2251.26513671875C2631.5068359375,2251.82470703125,2629.880615234375,2253.391357421875,2628.360595703125,2256.48779296875C2623.12841796875,2267.082275390625,2617.43701171875,2277.41552734375,2611.922119140625,2287.82373046875C2611.568603515625,2288.532470703125,2611.10888671875,2289.427734375,2611.215087890625,2290.136474609375C2611.745361328125,2293.41943359375,2612.48779296875,2296.62744140625,2613.19482421875,2300.17138671875C2614.11376953125,2299.42529296875,2614.82080078125,2298.86572265625,2615.52783203125,2298.343505859375C2619.4873046875,2295.247314453125,2624.401123046875,2295.88134765625,2626.875732421875,2299.835693359375C2628.6787109375,2302.6708984375,2628.466552734375,2305.879150390625,2626.27490234375,2308.37841796875C2621.71435546875,2313.60107421875,2617.11865234375,2318.82373046875,2612.48779296875,2324.00927734375C2610.260498046875,2326.508544921875,2606.47802734375,2326.956298828125,2603.5791015625,2325.16552734375C2600.85693359375,2323.48681640625,2599.58447265625,2320.166748046875,2600.57421875,2316.77197265625C2600.99853515625,2315.317138671875,2601.70556640625,2313.899658203125,2602.58935546875,2312.66845703125C2604.21533203125,2310.39306640625,2606.089111328125,2308.303955078125,2607.785888671875,2306.065673828125C2608.210205078125,2305.506103515625,2608.5283203125,2304.5361328125,2608.42236328125,2303.86474609375C2607.998046875,2301.402587890625,2607.39697265625,2298.977783203125,2606.796142578125,2296.552978515625C2606.68994140625,2296.105224609375,2606.265869140625,2295.545654296875,2605.841552734375,2295.359130859375C2604.250732421875,2294.687744140625,2602.483154296875,2294.314697265625,2600.99853515625,2293.45654296875C2597.81689453125,2291.628662109375,2594.776611328125,2289.53955078125,2591.66552734375,2287.5625C2590.78173828125,2287.0029296875,2589.89794921875,2286.51806640625,2588.943603515625,2286.107666015625C2586.53955078125,2285.06298828125,2585.9033203125,2283.94384765625,2586.85791015625,2281.4072265625C2587.95361328125,2278.53466796875,2589.19091796875,2275.69970703125,2590.4990234375,2272.93896484375C2595.766357421875,2261.74755859375,2601.599365234375,2250.89208984375,2608.1748046875,2240.48388671875C2609.270751953125,2238.76806640625,2610.54345703125,2237.12646484375,2611.922119140625,2235.59716796875C2614.11376953125,2233.135009765625,2615.9521484375,2232.873779296875,2618.49755859375,2234.962890625C2621.926513671875,2237.7607421875,2625.24951171875,2240.782470703125,2628.43115234375,2243.916015625C2629.98681640625,2245.445556640625,2631.294677734375,2246.154296875,2633.6279296875,2245.66943359375C2642.89013671875,2243.692138671875,2652.25830078125,2242.088134765625,2661.732421875,2242.05078125C2669.6865234375,2242.013427734375,2677.56982421875,2242.90869140625,2684.569580078125,2247.646484375C2686.3017578125,2248.84033203125,2688.0693359375,2248.056884765625,2689.306640625,2246.378173828125C2693.159912109375,2241.155517578125,2697.048583984375,2235.932861328125,2701.114013671875,2230.859375C2702.740234375,2228.8076171875,2704.154296875,2228.88232421875,2706.0986328125,2230.635498046875C2717.269775390625,2240.782470703125,2728.405517578125,2250.92919921875,2739.541259765625,2261.076171875C2741.0966796875,2262.49365234375,2741.16748046875,2264.023193359375,2739.6826171875,2265.7392578125C2736.78369140625,2269.0966796875,2733.849609375,2272.4541015625,2730.880126953125,2275.73681640625C2729.466064453125,2277.3037109375,2728.29931640625,2278.72119140625,2727.94580078125,2281.10888671875C2727.1328125,2286.853759765625,2725.577392578125,2292.412109375,2721.90087890625,2297.18701171875C2722.96142578125,2298.08251953125,2723.7744140625,2299.01513671875,2724.76416015625,2299.649169921875C2728.79443359375,2302.2978515625,2729.395263671875,2306.252197265625,2728.405517578125,2310.61669921875C2727.02685546875,2316.73486328125,2723.35009765625,2320.65185546875,2717.587890625,2322.255859375C2716.52734375,2322.55419921875,2716.173828125,2323.039306640625,2715.9970703125,2324.270263671875C2715.04248046875,2331.13427734375,2712.426513671875,2336.91650390625,2706.063232421875,2340.05029296875C2705.49755859375,2340.311279296875,2705.10888671875,2341.39306640625,2705.0380859375,2342.13916015625C2704.75537109375,2345.83251953125,2703.9775390625,2349.339111328125,2701.644287109375,2352.2861328125C2699.62939453125,2354.82275390625,2697.01318359375,2356.3896484375,2693.866943359375,2356.538818359375C2692.346923828125,2356.613525390625,2691.88720703125,2357.284912109375,2691.53369140625,2358.665283203125C2689.978271484375,2364.85791015625,2683.509033203125,2370.155029296875,2677.4638671875,2369.856689453125C2675.484130859375,2369.74462890625,2673.29248046875,2368.88671875,2671.666259765625,2367.69287109375C2665.267578125,2362.955322265625,2659.0810546875,2357.95654296875,2652.78857421875,2353.0322265625C2652.64697265625,2352.92041015625,2652.505615234375,2352.845703125,2652.1875,2352.6591796875C2650.9501953125,2354.07666015625,2649.748291015625,2355.56884765625,2648.440185546875,2356.94921875C2644.763671875,2360.8662109375,2638.9306640625,2359.82177734375,2636.668212890625,2354.860107421875C2635.607666015625,2352.54736328125,2635.64306640625,2350.30908203125,2637.41064453125,2348.219970703125C2641.794189453125,2342.9599609375,2646.213134765625,2337.7373046875,2650.34912109375,2332.290771484375C2653.00048828125,2328.821533203125,2657.525634765625,2329.23193359375,2659.7880859375,2331.059814453125C2662.68701171875,2333.37255859375,2663.60595703125,2337.961181640625,2661.520263671875,2341.16943359375C2660.318359375,2343.03466796875,2658.7275390625,2344.601318359375,2657.3134765625,2346.3173828125C2656.88916015625,2346.839599609375,2656.4296875,2347.36181640625,2655.864013671875,2348.033447265625C2657.702392578125,2349.56298828125,2659.36376953125,2351.05517578125,2661.13134765625,2352.435302734375C2665.762451171875,2355.979248046875,2670.428955078125,2359.44873046875,2675.09521484375,2362.99267578125C2676.580078125,2364.11181640625,2678.10009765625,2364.260986328125,2679.76171875,2363.55224609375C2682.87255859375,2362.28369140625,2685.48876953125,2360.455810546875,2686.513916015625,2356.800048828125C2686.796630859375,2355.71826171875,2686.6552734375,2354.934814453125,2685.87744140625,2354.26318359375C2679.9384765625,2349.18994140625,2673.99951171875,2344.15380859375,2668.02490234375,2339.11767578125C2666.75244140625,2338.072998046875,2665.4443359375,2337.140380859375,2665.585693359375,2335.1259765625C2665.72705078125,2333.409912109375,2666.78759765625,2332.365478515625,2668.34326171875,2332.850341796875C2669.721923828125,2333.2607421875,2671.135986328125,2333.93212890625,2672.26708984375,2334.86474609375C2677.322509765625,2339.11767578125,2682.271728515625,2343.482177734375,2687.25634765625,2347.8095703125C2687.751220703125,2348.219970703125,2688.17529296875,2348.66748046875,2688.67041015625,2349.077880859375C2692.48828125,2352.2861328125,2697.649658203125,2350.458251953125,2698.92236328125,2345.45947265625C2699.0283203125,2345.01171875,2699.13427734375,2344.52685546875,2699.205078125,2344.0791015625C2699.80615234375,2341.20654296875,2699.417236328125,2338.93115234375,2696.871826171875,2336.953857421875C2691.2509765625,2332.58935546875,2685.87744140625,2327.92626953125,2680.46875,2323.30029296875C2679.69091796875,2322.62890625,2678.80712890625,2321.80810546875,2678.559814453125,2320.87548828125C2678.312255859375,2319.94287109375,2678.45361328125,2318.45068359375,2679.0546875,2317.816650390625C2679.620361328125,2317.2197265625,2680.963623046875,2317.2197265625,2681.95361328125,2317.257080078125C2682.554443359375,2317.29443359375,2683.1201171875,2317.928466796875,2683.650390625,2318.376220703125C2689.306640625,2323.151123046875,2694.962890625,2327.96337890625,2700.619140625,2332.738525390625C2703.51806640625,2335.20068359375,2704.719970703125,2335.088623046875,2707.08837890625,2332.02978515625C2709.068115234375,2329.492919921875,2710.517578125,2326.65771484375,2710.552978515625,2323.30029296875C2710.552978515625,2322.405029296875,2710.09326171875,2321.285888671875,2709.45703125,2320.68896484375C2704.5078125,2316.21240234375,2699.48779296875,2311.847900390625,2694.53857421875,2307.371337890625C2693.548828125,2306.51318359375,2692.6650390625,2305.46875,2691.9580078125,2304.349609375C2691.2509765625,2303.267822265625,2691.427734375,2301.85009765625,2692.452880859375,2301.141357421875C2693.230712890625,2300.619140625,2694.53857421875,2300.32080078125,2695.38720703125,2300.656494140625C2696.62451171875,2301.141357421875,2697.68505859375,2302.148681640625,2698.710205078125,2303.081298828125C2703.235107421875,2307.1474609375,2707.76025390625,2311.2509765625,2712.17919921875,2315.42919921875C2713.80517578125,2316.95849609375,2715.431396484375,2317.40625,2717.234375,2316.21240234375C2718.75439453125,2315.205322265625,2720.380615234375,2314.197998046875,2721.4765625,2312.780517578125C2724.1279296875,2309.423095703125,2723.70361328125,2306.28955078125,2720.628173828125,2303.454345703125C2708.184326171875,2291.92724609375,2695.77587890625,2280.39990234375,2683.296875,2268.98486328125C2682.554443359375,2268.313232421875,2681.24658203125,2267.90283203125,2680.256591796875,2268.05224609375C2674.8125,2268.79833984375,2669.368408203125,2269.618896484375,2663.994873046875,2270.626220703125C2662.2626953125,2270.9619140625,2660.60107421875,2271.89453125,2658.904296875,2272.603271484375C2653.84912109375,2274.76708984375,2649.218017578125,2273.797119140625,2644.975830078125,2270.51416015625C2642.1123046875,2268.313232421875,2641.794189453125,2265.3662109375,2644.33935546875,2262.717529296875C2646.7080078125,2260.25537109375,2649.60693359375,2258.35302734375,2652.0107421875,2255.92822265625C2655.227783203125,2252.6826171875,2659.0810546875,2251.48876953125,2663.39404296875,2251.153076171875C2667.10595703125,2250.854736328125,2670.782470703125,2250.14599609375,2674.494384765625,2249.62353515625C2674.458984375,2249.51171875,2674.458984375,2249.3251953125,2674.458984375,2249.101318359375ZM2615.84619140625,2239.70068359375C2606.442626953125,2252.94384765625,2599.549072265625,2267.15673828125,2592.796875,2281.51904296875C2597.003662109375,2284.09326171875,2600.927734375,2286.51806640625,2604.9931640625,2289.017333984375C2611.28564453125,2276.9306640625,2617.47216796875,2265.06787109375,2623.62353515625,2253.204833984375C2624.259765625,2251.973876953125,2625.56787109375,2250.55615234375,2625.355712890625,2249.474365234375C2625.1435546875,2248.28076171875,2623.552734375,2247.34814453125,2622.527587890625,2246.3408203125C2620.47705078125,2244.21435546875,2618.32080078125,2242.12548828125,2615.84619140625,2239.70068359375ZM2733.92041015625,2263.61279296875C2732.71826171875,2262.568359375,2731.65771484375,2261.673095703125,2730.66796875,2260.740478515625C2726.284423828125,2256.599609375,2721.971435546875,2252.38427734375,2717.48193359375,2248.31787109375C2713.41650390625,2244.624755859375,2709.17431640625,2241.080810546875,2705.002685546875,2237.536865234375C2704.61376953125,2237.201171875,2703.588623046875,2237.052001953125,2703.37646484375,2237.27587890625C2700.54833984375,2240.7451171875,2697.791015625,2244.2890625,2694.927490234375,2247.90771484375C2704.93212890625,2256.636962890625,2714.83056640625,2265.29150390625,2724.8349609375,2274.02099609375C2727.91064453125,2270.551513671875,2730.880126953125,2267.15673828125,2733.92041015625,2263.61279296875ZM2644.5869140625,2319.4580078125C2648.298828125,2319.4580078125,2651.339111328125,2322.293212890625,2651.40966796875,2326.09814453125C2651.445068359375,2327.329345703125,2650.985595703125,2328.85888671875,2650.2431640625,2329.82861328125C2645.01123046875,2336.431640625,2639.673095703125,2342.922607421875,2634.370361328125,2349.450927734375C2631.330078125,2353.181396484375,2627.582763671875,2353.815673828125,2624.401123046875,2351.204345703125C2621.042724609375,2348.406494140625,2620.47705078125,2343.668701171875,2623.3759765625,2339.938232421875C2627.087890625,2335.20068359375,2631.04736328125,2330.686767578125,2634.900634765625,2326.06103515625C2635.961181640625,2324.79248046875,2636.986328125,2323.524169921875,2638.082275390625,2322.33056640625C2640.09716796875,2320.166748046875,2641.7587890625,2319.4580078125,2644.5869140625,2319.4580078125ZM2618.14404296875,2341.0947265625C2612.381591796875,2340.684326171875,2608.98779296875,2334.529052734375,2611.88671875,2329.119873046875C2613.54833984375,2325.986328125,2615.88134765625,2323.1884765625,2618.14404296875,2320.46533203125C2621.042724609375,2316.95849609375,2624.118408203125,2313.60107421875,2627.15869140625,2310.20654296875C2629.173583984375,2307.96826171875,2633.062255859375,2307.333984375,2635.64306640625,2308.788818359375C2638.29443359375,2310.281005859375,2639.88525390625,2313.93701171875,2639.072021484375,2317.033203125C2638.85986328125,2317.816650390625,2638.435791015625,2318.562744140625,2637.905517578125,2319.19677734375C2632.28466796875,2325.986328125,2626.66357421875,2332.77587890625,2620.97216796875,2339.49072265625C2620.26513671875,2340.27392578125,2619.098388671875,2340.572509765625,2618.14404296875,2341.0947265625Z" fill-rule="evenodd" class="s0"/></g></g></svg>