<svg xmlns="http://www.w3.org/2000/svg" viewBox="0 0 75.158 80.507" fill="#001132">
    <g transform="matrix(0.107985, 0, 0, 0.107985, 33.360844, 34.761444)">
        <path d="M 250.065 -157.14 L 279.065 -157.14 L 298.065 -154.14 L 311.065 -150.14 L 315.859 -147.608 L 319.748 -145.092 L 323.901 -142.075 L 330.935 -136.739 L 340.788 -128.674 L 348.065 -122.14 L 358.065 -111.14 L 368.065 -98.141 L 377.955 -82.446 L 383.065 -70.141 L 385.065 -63.141 L 387.065 -45.141 L 387.065 -17.141 L 384.065 -0.141 L 380.771 9.66 L 375.898 20.479 L 370.065 29.859 L 364.61 38.071 L 359.065 45.859 L 354.853 51.538 L 349.065 56.859 L 340.194 65.428 L 332.04 72.038 L 327.006 75.945 L 321.161 80.2 L 314.611 84.877 L 306.382 89.487 L 294.065 92.859 L -293.94 91.859 L -303.616 86.686 L -307.94 81.859 L -308.94 78.859 L -308.94 60.859 C -309.051 60.872 -307.522 54.414 -307.31 54.185 C -307.001 53.174 -306.66 52.147 -305.693 50.606 C -304.369 48.202 -299.96 45.243 -295.85 44.409 C -295.85 44.214 -282.94 42.531 -282.94 42.859 L 265.065 41.859 L 278.065 40.859 L 288.065 36.859 L 298.153 32.866 L 309.065 24.859 L 317.065 16.859 L 325.065 6.859 L 331.065 -5.141 L 336.065 -27.141 L 334.065 -50.141 L 330.065 -64.141 L 319.065 -81.141 L 310.065 -89.141 L 297.065 -98.141 L 284.065 -103.14 L 274.065 -105.14 L 252.065 -105.14 L 237.065 -102.14 L 225.065 -97.141 L 213.065 -88.141 L 205.065 -80.141 L 197.065 -67.141 L 193.065 -57.141 L 190.065 -40.141 L 189.065 -4.141 L 186.065 6.859 L 177.065 13.859 L 171.065 15.859 L 158.065 15.859 L 150.065 10.859 L 143.065 0.859 L 140.065 -7.141 L 139.065 -13.141 L 139.065 -49.141 L 142.065 -66.141 L 147.065 -81.141 L 153.549 -92.494 L 159.198 -101.084 L 167.065 -112.14 L 180.065 -126.14 L 191.508 -134.932 L 202.805 -141.909 L 218.065 -150.14 L 227.065 -153.14 L 250.065 -157.14 Z"></path>
        <path d="M -3.935 -190.14 L 21.065 -190.14 L 38.065 -187.14 L 51.065 -182.14 L 62.065 -176.14 C 62.525 -176.354 72.266 -168.547 72.095 -168.468 C 72.085 -168.478 76.723 -164.468 78.065 -163.14 L 85.934 -154.606 L 90.812 -147.731 L 95.065 -140.14 L 99.065 -128.14 L 102.437 -109.268 L 103.077 -92.05 L 98.065 -68.141 L 90.065 -52.141 L 82.065 -40.141 L 70.065 -28.141 L 49.065 -14.141 L 32.065 -10.141 L 25.065 -9.141 L -11.935 -8.141 L -225.94 -8.141 L -231.199 -10.364 L -235.374 -13.073 L -238.215 -15.827 L -240.733 -18.207 L -242.94 -21.141 L -243.94 -24.141 L -243.94 -36.141 L -239.94 -46.141 L -233.94 -54.141 L -227.94 -58.141 L -216.94 -59.141 L 24.065 -60.141 L 33.065 -63.141 L 42.065 -70.141 L 51.065 -82.141 L 53.065 -89.141 L 53.065 -105.14 L 49.065 -118.14 L 43.065 -127.14 L 33.065 -135.14 L 25.065 -138.14 L 19.065 -139.14 L 4.065 -139.14 L -6.935 -135.14 L -15.935 -128.14 L -21.935 -121.14 L -26.935 -108.14 L -34.935 -92.141 L -39.935 -86.141 L -45.935 -84.141 L -57.935 -84.141 L -66.935 -88.141 L -73.935 -94.141 L -77.935 -104.14 L -78.935 -112.14 L -69.935 -138.14 L -62.935 -150.14 L -46.935 -170.14 L -35.935 -178.14 L -12.935 -188.14 L -3.935 -190.14 Z"></path>
        <path d="M -183.94 144.859 L 124.065 144.859 L 138.065 149.859 L 147.065 156.859 L 158.065 165.859 L 167.738 177.549 L 171.575 185.427 L 177.065 201.859 L 178.065 214.859 L 178.065 229.859 L 174.065 242.859 L 165.065 259.859 L 154.065 271.859 L 145.065 279.859 L 134.065 285.859 L 123.065 289.859 L 112.065 291.859 L 100.065 291.859 L 84.065 289.859 L 77.065 286.859 L 59.065 276.859 L 56.065 274.859 L 54.816 273.7 L 52.065 270.859 L 49.882 268.75 L 47.065 265.859 L 42.065 258.859 L 40.829 256.809 L 39.715 254.807 L 36.065 247.859 L 35.236 240.859 L 37.065 231.859 L 41.236 225.859 L 52.065 218.859 L 60.065 216.859 L 66.065 216.859 L 72.065 220.859 L 82.065 229.859 L 91.065 237.859 L 98.065 240.859 L 108.065 240.859 L 116.065 237.859 L 122.065 232.859 L 128.065 222.859 L 127.065 213.859 L 119.065 197.859 L 113.065 193.859 L 106.065 192.859 L 23.065 191.859 L -162.94 190.859 L -185.94 189.859 L -193.94 185.859 L -200.94 175.859 L -202.94 169.859 L -202.94 162.859 L -197.94 152.859 L -190.94 146.859 L -183.94 144.859 Z"></path>
    </g>
</svg>