<svg xmlns="http://www.w3.org/2000/svg" viewBox="0 0 75.158 80.507" fill="#001132">
    <g transform="matrix(0.051762, 0, 0, 0.051762, 35.056107, 37.455807)">
        <path d="M -673.26 -671.45 L -644.26 -671.45 L -553.26 -670.45 L -548.26 -668.45 L -548.26 651.549 L 757.741 651.549 L 773.741 652.549 L 774.741 655.549 L 774.741 774.549 L 772.741 777.549 L 762.741 778.549 L 474.741 779.549 L -666.26 779.549 L -675.26 778.549 L -676.26 776.549 L -677.26 747.549 L -677.26 -585.45 L -676.26 -669.45 L -673.26 -671.45 Z"></path>
        <path d="M -98.259 -670.45 L 130.741 -670.45 L 133.741 -669.45 L 134.741 -666.45 L 134.741 360.549 L 135.741 518.549 L 134.741 521.549 L 132.741 522.549 L -58.259 523.549 L -95.259 523.549 L -100.26 519.549 L -101.26 515.549 L -101.26 -284.45 L -100.26 -663.45 L -98.259 -670.45 Z"></path>
        <path d="M 218.741 -222.45 L 433.741 -222.45 L 452.741 -221.45 L 454.741 -219.45 L 454.741 519.549 L 450.741 522.549 L 222.741 523.549 L 218.741 522.549 L 217.741 487.549 L 218.741 -222.45 Z"></path>
        <path d="M -420.26 -222.45 L -188.26 -222.45 L -185.26 -219.45 L -185.26 520.549 L -188.26 522.549 L -411.26 523.549 L -419.26 522.549 L -420.26 519.549 L -421.26 -217.45 L -420.26 -222.45 Z"></path>
        <path d="M 639.741 139.549 L 732.741 139.549 L 770.741 140.549 L 773.741 141.549 L 774.741 149.549 L 774.741 520.549 L 771.741 522.549 L 592.741 523.549 L 542.741 523.549 L 538.741 519.549 L 538.741 148.549 L 540.741 140.549 L 639.741 139.549 Z"></path>
    </g>
</svg>