<svg xmlns="http://www.w3.org/2000/svg"  viewBox="0 0 75.158 80.507" fill="#001132">
    <g transform="matrix(0.763307, 0, 0, 0.865952, -1.566432, 16.994886)" style="">
        <g transform="matrix(1, 0, 0, 1, -1213.105225, -1180.725952)">
            <path d="M1306.616455078125,1235.6605224609375C1306.616455078125,1237.18115234375,1304.861572265625,1238.5848388671875,1301.93701171875,1239.6378173828125L1301.93701171875,1235.426513671875C1303.5748291015625,1234.95849609375,1305.2125244140625,1234.2567138671875,1306.616455078125,1233.5545654296875L1306.616455078125,1235.6605224609375ZM1297.2578125,1227.9395751953125L1297.2578125,1223.728271484375C1298.8956298828125,1223.2603759765625,1300.533203125,1222.55859375,1301.93701171875,1221.8565673828125L1301.93701171875,1223.962158203125C1301.93701171875,1225.4830322265625,1300.1822509765625,1226.88671875,1297.2578125,1227.9395751953125ZM1297.2578125,1241.0413818359375C1295.85400390625,1241.3924560546875,1294.21630859375,1241.6265869140625,1292.57861328125,1241.8603515625L1292.57861328125,1237.298095703125C1294.0992431640625,1237.064208984375,1295.737060546875,1236.8302001953125,1297.2578125,1236.5963134765625L1297.2578125,1241.0413818359375ZM1287.8992919921875,1225.5999755859375C1289.420166015625,1225.365966796875,1291.0577392578125,1225.1319580078125,1292.57861328125,1224.898193359375L1292.57861328125,1229.343505859375C1291.1749267578125,1229.6943359375,1289.537109375,1229.92822265625,1287.8992919921875,1230.1624755859375L1287.8992919921875,1225.5999755859375ZM1287.8992919921875,1242.4453125C1286.3785400390625,1242.562255859375,1284.8577880859375,1242.6790771484375,1283.219970703125,1242.6790771484375L1283.219970703125,1238C1284.6236572265625,1238,1286.2615966796875,1237.8831787109375,1287.8992919921875,1237.76611328125L1287.8992919921875,1242.4453125ZM1278.5408935546875,1230.981201171875L1278.5408935546875,1226.3018798828125C1279.944580078125,1226.3018798828125,1281.582275390625,1226.18505859375,1283.219970703125,1226.06787109375L1283.219970703125,1230.747314453125C1281.69921875,1230.8642578125,1280.1785888671875,1230.8642578125,1278.5408935546875,1230.981201171875ZM1278.5408935546875,1242.6790771484375C1276.9029541015625,1242.6790771484375,1275.38232421875,1242.562255859375,1273.861572265625,1242.4453125L1273.861572265625,1238C1274.680419921875,1238,1275.38232421875,1238,1276.201171875,1238C1276.9029541015625,1238,1277.7220458984375,1238,1278.5408935546875,1238L1278.5408935546875,1242.6790771484375ZM1269.182373046875,1226.06787109375C1270.703125,1226.18505859375,1272.2237548828125,1226.3018798828125,1273.861572265625,1226.3018798828125L1273.861572265625,1230.981201171875C1272.2237548828125,1230.981201171875,1270.703125,1230.8642578125,1269.182373046875,1230.747314453125L1269.182373046875,1226.06787109375ZM1269.182373046875,1241.8603515625C1267.54443359375,1241.6265869140625,1265.90673828125,1241.3924560546875,1264.5030517578125,1241.0413818359375L1264.5030517578125,1237.298095703125C1266.02392578125,1237.531982421875,1267.54443359375,1237.6490478515625,1269.182373046875,1237.76611328125L1269.182373046875,1241.8603515625ZM1259.82373046875,1229.343505859375L1259.82373046875,1224.781005859375C1261.3446044921875,1225.0152587890625,1262.8653564453125,1225.365966796875,1264.5030517578125,1225.4830322265625L1264.5030517578125,1230.1624755859375C1262.8653564453125,1229.92822265625,1261.2275390625,1229.6943359375,1259.82373046875,1229.343505859375ZM1259.82373046875,1239.6378173828125C1256.8994140625,1238.468017578125,1255.14453125,1237.064208984375,1255.14453125,1235.6605224609375L1255.14453125,1235.426513671875C1255.14453125,1235.426513671875,1255.14453125,1235.426513671875,1255.261474609375,1235.426513671875C1255.612548828125,1235.5433349609375,1255.8463134765625,1235.6605224609375,1256.1973876953125,1235.6605224609375C1257.3671875,1236.011474609375,1258.537109375,1236.2452392578125,1259.82373046875,1236.479248046875L1259.82373046875,1239.6378173828125ZM1241.1068115234375,1223.728271484375C1241.925537109375,1223.728271484375,1242.627685546875,1223.8453369140625,1243.446533203125,1223.8453369140625L1243.446533203125,1223.962158203125C1243.446533203125,1225.5999755859375,1243.79736328125,1227.23779296875,1244.6163330078125,1228.524658203125C1243.446533203125,1228.524658203125,1242.276611328125,1228.4075927734375,1241.1068115234375,1228.29052734375L1241.1068115234375,1223.728271484375ZM1236.427490234375,1209.690673828125C1237.9483642578125,1209.924560546875,1239.468994140625,1210.275634765625,1241.1068115234375,1210.392578125L1241.1068115234375,1215.0716552734375C1239.468994140625,1214.837646484375,1237.831298828125,1214.6038818359375,1236.427490234375,1214.252685546875L1236.427490234375,1209.690673828125ZM1236.427490234375,1227.82275390625C1234.7899169921875,1227.5887451171875,1233.1519775390625,1227.354736328125,1231.748291015625,1227.00390625L1231.748291015625,1222.4415283203125C1233.26904296875,1222.675537109375,1234.7899169921875,1223.0263671875,1236.427490234375,1223.1434326171875L1236.427490234375,1227.82275390625ZM1227.069091796875,1208.7547607421875L1227.069091796875,1206.64892578125C1228.47265625,1207.350830078125,1229.99365234375,1207.935791015625,1231.748291015625,1208.4036865234375L1231.748291015625,1212.732177734375C1228.82373046875,1211.67919921875,1227.069091796875,1210.275634765625,1227.069091796875,1208.7547607421875ZM1227.069091796875,1225.5999755859375C1224.1446533203125,1224.43017578125,1222.389892578125,1223.0263671875,1222.389892578125,1221.62255859375L1222.389892578125,1219.516845703125C1223.793701171875,1220.2188720703125,1225.314453125,1220.8038330078125,1227.069091796875,1221.271728515625L1227.069091796875,1225.5999755859375ZM1222.389892578125,1189.1019287109375C1223.793701171875,1189.8038330078125,1225.314453125,1190.388671875,1227.069091796875,1190.8565673828125L1227.069091796875,1195.1849365234375C1224.1446533203125,1194.01513671875,1222.389892578125,1192.6112060546875,1222.389892578125,1191.20751953125L1222.389892578125,1189.1019287109375ZM1236.427490234375,1192.845458984375L1236.427490234375,1197.5244140625C1234.7899169921875,1197.2904052734375,1233.1519775390625,1197.056640625,1231.748291015625,1196.70556640625L1231.748291015625,1192.1435546875C1233.26904296875,1192.3773193359375,1234.7899169921875,1192.6112060546875,1236.427490234375,1192.845458984375ZM1248.1256103515625,1172.4906005859375C1262.3973388671875,1172.4906005859375,1273.861572265625,1175.64892578125,1273.861572265625,1179.509521484375C1273.861572265625,1183.3699951171875,1262.3973388671875,1186.5283203125,1248.1256103515625,1186.5283203125C1233.8541259765625,1186.5283203125,1222.389892578125,1183.3699951171875,1222.389892578125,1179.509521484375C1222.389892578125,1175.64892578125,1233.8541259765625,1172.4906005859375,1248.1256103515625,1172.4906005859375ZM1255.14453125,1227.9395751953125C1252.2200927734375,1226.769775390625,1250.4652099609375,1225.365966796875,1250.4652099609375,1223.962158203125L1250.4652099609375,1221.8565673828125C1251.868896484375,1222.55859375,1253.389892578125,1223.1434326171875,1255.14453125,1223.611328125L1255.14453125,1227.9395751953125ZM1269.182373046875,1195.1849365234375L1269.182373046875,1190.9736328125C1270.820068359375,1190.505859375,1272.4578857421875,1189.8038330078125,1273.861572265625,1189.1019287109375L1273.861572265625,1191.20751953125C1273.861572265625,1192.7283935546875,1272.10693359375,1194.132080078125,1269.182373046875,1195.1849365234375ZM1259.82373046875,1197.4075927734375L1259.82373046875,1192.845458984375C1261.3446044921875,1192.6112060546875,1262.9822998046875,1192.3773193359375,1264.5030517578125,1192.1435546875L1264.5030517578125,1196.588623046875C1263.099365234375,1196.939697265625,1261.4615478515625,1197.173583984375,1259.82373046875,1197.4075927734375ZM1250.4652099609375,1198.226318359375L1250.4652099609375,1193.547119140625C1251.868896484375,1193.547119140625,1253.5068359375,1193.43017578125,1255.14453125,1193.3133544921875L1255.14453125,1197.9925537109375C1253.6236572265625,1198.1094970703125,1252.1031494140625,1198.1094970703125,1250.4652099609375,1198.226318359375ZM1241.1068115234375,1197.9925537109375L1241.1068115234375,1193.3133544921875C1242.627685546875,1193.43017578125,1244.148193359375,1193.547119140625,1245.7861328125,1193.547119140625L1245.7861328125,1198.226318359375C1244.148193359375,1198.1094970703125,1242.627685546875,1198.1094970703125,1241.1068115234375,1197.9925537109375ZM1301.93701171875,1212.2642822265625C1301.93701171875,1216.1246337890625,1290.472900390625,1219.282958984375,1276.201171875,1219.282958984375C1261.9295654296875,1219.282958984375,1250.4652099609375,1216.1246337890625,1250.4652099609375,1212.2642822265625C1250.4652099609375,1208.4036865234375,1261.9295654296875,1205.245361328125,1276.201171875,1205.245361328125C1290.472900390625,1205.245361328125,1301.93701171875,1208.4036865234375,1301.93701171875,1212.2642822265625ZM1308.955810546875,1215.7735595703125L1308.955810546875,1212.2642822265625C1308.955810546875,1206.76611328125,1304.627685546875,1202.788818359375,1296.204833984375,1200.5660400390625C1293.04638671875,1199.7471923828125,1289.420166015625,1199.0452880859375,1285.3258056640625,1198.6943359375C1285.4427490234375,1198.226318359375,1285.4427490234375,1197.6416015625,1285.4427490234375,1197.056640625C1285.4427490234375,1193.7808837890625,1283.921875,1190.9736328125,1280.763427734375,1188.867919921875L1280.763427734375,1179.509521484375C1280.763427734375,1174.0113525390625,1276.43505859375,1170.0340576171875,1268.0123291015625,1167.811279296875C1262.5142822265625,1166.29052734375,1255.49560546875,1165.4718017578125,1248.0087890625,1165.4718017578125C1238.182373046875,1165.4718017578125,1215.2540283203125,1166.8753662109375,1215.2540283203125,1179.509521484375L1215.2540283203125,1191.20751953125C1215.2540283203125,1194.483154296875,1216.774658203125,1197.2904052734375,1219.93310546875,1199.396240234375L1219.93310546875,1201.618896484375C1217.125732421875,1203.607421875,1215.2540283203125,1206.2982177734375,1215.2540283203125,1209.924560546875L1215.2540283203125,1221.62255859375C1215.2540283203125,1227.12060546875,1219.582275390625,1231.0980224609375,1228.0050048828125,1233.3209228515625C1233.503173828125,1234.8414306640625,1240.5218505859375,1235.6605224609375,1248.0087890625,1235.6605224609375C1248.0087890625,1241.158447265625,1252.3370361328125,1245.1358642578125,1260.759765625,1247.3583984375C1266.2576904296875,1248.87939453125,1273.2767333984375,1249.6981201171875,1280.763427734375,1249.6981201171875C1290.58984375,1249.6981201171875,1313.5181884765625,1248.29443359375,1313.5181884765625,1235.6605224609375L1313.5181884765625,1223.962158203125C1313.6351318359375,1220.6866455078125,1312.1143798828125,1217.8792724609375,1308.955810546875,1215.7735595703125Z"></path>
        </g>
    </g>
</svg>