<svg xmlns="http://www.w3.org/2000/svg" viewBox="0 0 75.158 80.507">
    <g transform="matrix(0.049665, 0, 0, 0.049665, 35.176201, 35.950478)" fill="#001132">
        <path d="M -549.12 -29.859 L -545.12 -27.859 L -535.12 -4.859 L -526.12 6.141 L -516.12 14.141 L -499.12 25.141 L -478.12 37.141 L -446.12 52.141 L -421.12 62.141 L -396.12 71.141 L -372.12 78.141 L -330.12 89.141 L -295.12 97.141 L -250.12 105.141 L -203.12 112.141 L -159.12 117.141 L -94.118 123.141 L -47.118 126.141 L -0.118 128.141 L 92.882 128.141 L 162.882 125.141 L 204.882 122.141 L 268.882 116.141 L 314.882 110.141 L 380.882 99.141 L 428.882 88.141 L 468.882 78.141 L 503.882 67.141 L 533.882 56.141 L 559.882 45.141 L 578.882 35.141 L 591.882 28.141 L 609.882 16.141 L 622.882 5.141 L 629.882 -0.859 L 630.882 -2.859 L 632.882 -2.859 L 642.882 -22.859 L 645.882 -25.859 L 646.882 -24.859 L 646.882 -3.859 L 645.882 18.141 L 644.882 310.141 L 642.882 320.141 L 633.882 334.141 L 625.882 344.141 L 612.882 357.141 L 602.882 364.141 L 581.882 376.141 L 559.882 387.141 L 534.882 398.141 L 494.882 412.141 L 456.882 423.141 L 411.882 434.141 L 361.882 444.141 L 312.882 452.141 L 255.882 459.141 L 214.882 463.141 L 159.882 467.141 L 92.882 470.141 L 5.882 470.141 L -52.118 468.141 L -96.118 465.141 L -156.12 460.141 L -198.12 455.141 L -252.12 447.141 L -288.12 440.141 L -326.12 432.141 L -388.12 416.141 L -429.12 402.141 L -455.12 391.141 L -481.12 378.141 L -500.12 367.141 L -516.12 355.141 L -528.12 344.141 L -537.12 334.141 L -545.12 319.141 L -549.12 304.141 L -550.12 273.141 L -550.12 99.141 L -549.12 -29.859 Z M 470.882 215.141 L 454.882 220.141 L 444.882 227.141 L 435.882 239.141 L 432.882 247.141 L 432.882 261.141 L 437.882 276.141 L 444.882 287.141 L 452.882 294.141 L 465.882 299.141 L 471.882 300.141 L 483.882 300.141 L 493.882 296.141 L 507.882 286.141 L 514.882 276.141 L 517.882 267.141 L 517.882 254.141 L 512.882 238.141 L 506.882 227.141 L 498.882 221.141 L 490.882 217.141 L 478.882 215.141 L 470.882 215.141 Z"></path>
        <path d="M -550.12 -452.86 L -545.12 -448.86 L -536.12 -434.86 L -525.12 -421.86 L -517.12 -413.86 L -505.12 -404.86 L -489.12 -395.86 L -449.12 -375.86 L -422.12 -364.86 L -387.12 -352.86 L -359.12 -344.86 L -306.12 -331.86 L -264.12 -323.86 L -227.12 -317.86 L -192.12 -312.86 L -135.12 -306.86 L -72.118 -301.86 L -6.118 -298.86 L 31.882 -297.86 L 68.882 -297.86 L 131.882 -299.86 L 174.882 -301.86 L 254.882 -308.86 L 302.882 -314.86 L 356.882 -322.86 L 405.882 -332.86 L 459.882 -345.86 L 490.882 -354.86 L 511.882 -361.86 L 542.882 -373.86 L 581.882 -392.86 L 595.882 -400.86 L 611.882 -411.86 L 622.882 -420.86 L 629.882 -427.86 L 635.882 -436.86 L 643.882 -451.86 L 645.882 -451.86 L 646.882 -435.86 L 645.882 -406.86 L 644.882 -116.86 L 642.882 -106.86 L 637.882 -97.859 L 627.882 -84.859 L 617.882 -73.859 L 604.882 -63.859 L 586.882 -52.859 L 556.882 -37.859 L 528.882 -25.859 L 487.882 -11.859 L 443.882 0.141 L 390.882 12.141 L 341.882 21.141 L 294.882 28.141 L 233.882 35.141 L 185.882 39.141 L 126.882 42.141 L 97.882 43.141 L -3.118 43.141 L -63.118 41.141 L -121.12 37.141 L -186.12 30.141 L -241.12 22.141 L -279.12 15.141 L -310.12 9.141 L -374.12 -6.859 L -418.12 -20.859 L -439.12 -28.859 L -469.12 -42.859 L -496.12 -56.859 L -509.12 -65.859 L -519.12 -74.859 L -537.12 -92.859 L -546.12 -106.86 L -549.12 -116.86 L -550.12 -136.86 L -550.12 -452.86 Z M 468.882 -211.86 L 456.882 -207.86 L 443.882 -198.86 L 435.882 -185.86 L 432.882 -175.86 L 432.882 -166.86 L 435.882 -154.86 L 440.882 -144.86 L 447.882 -135.86 L 457.882 -129.86 L 465.882 -126.86 L 472.882 -125.86 L 480.882 -125.86 L 492.882 -129.86 L 501.882 -134.86 L 508.882 -140.86 L 514.882 -151.86 L 517.882 -167.86 L 515.882 -181.86 L 510.882 -193.86 L 502.882 -202.86 L 491.882 -208.86 L 478.882 -211.86 L 468.882 -211.86 Z"></path>
        <path d="M -548.12 393.141 L -546.12 393.141 L -537.12 419.141 L -529.12 429.141 L -523.12 436.141 L -502.12 450.141 L -484.12 460.141 L -460.12 472.141 L -428.12 486.141 L -391.12 499.141 L -357.12 509.141 L -311.12 520.141 L -272.12 528.141 L -221.12 536.141 L -165.12 543.141 L -127.12 547.141 L -65.118 552.141 L -19.118 554.141 L 33.882 555.141 L 54.882 555.141 L 106.882 554.141 L 160.882 552.141 L 202.882 549.141 L 264.882 543.141 L 313.882 537.141 L 377.882 526.141 L 424.882 516.141 L 467.882 505.141 L 514.882 490.141 L 535.882 482.141 L 556.882 473.141 L 581.882 460.141 L 601.882 448.141 L 617.882 437.141 L 630.882 425.141 L 636.882 417.141 L 641.882 405.141 L 644.882 401.141 L 646.882 401.141 L 646.882 422.141 L 645.882 446.141 L 644.882 735.141 L 642.882 745.141 L 635.882 759.141 L 623.882 773.141 L 616.882 780.141 L 602.882 790.141 L 587.882 799.141 L 560.882 813.141 L 540.882 822.141 L 514.882 832.141 L 489.882 840.141 L 462.882 848.141 L 413.882 860.141 L 358.882 871.141 L 299.882 880.141 L 240.882 887.141 L 182.882 892.141 L 126.882 895.141 L 66.882 897.141 L 12.882 897.141 L -47.118 895.141 L -93.118 892.141 L -182.12 884.141 L -242.12 875.141 L -285.12 868.141 L -338.12 856.141 L -386.12 843.141 L -407.12 836.141 L -441.12 823.141 L -467.12 811.141 L -489.12 800.141 L -505.12 790.141 L -517.12 781.141 L -527.12 772.141 L -535.12 764.141 L -542.12 753.141 L -547.12 736.141 L -549.12 721.141 L -550.12 696.141 L -550.12 532.141 L -549.12 408.141 L -548.12 393.141 Z M 468.882 642.141 L 455.882 645.141 L 447.882 651.141 L 441.882 658.141 L 435.882 668.141 L 432.882 676.141 L 431.882 685.141 L 434.882 698.141 L 440.882 709.141 L 448.882 718.141 L 462.882 725.141 L 468.882 726.141 L 484.882 726.141 L 495.882 722.141 L 506.882 714.141 L 512.882 706.141 L 516.882 696.141 L 517.882 692.141 L 517.882 678.141 L 513.882 666.141 L 508.882 657.141 L 503.882 651.141 L 493.882 645.141 L 487.882 643.141 L 480.882 642.141 L 468.882 642.141 Z"></path>
        <path d="M 16.882 -723.86 L 82.882 -723.86 L 121.882 -722.86 L 185.882 -718.86 L 255.882 -712.86 L 314.882 -705.86 L 360.882 -698.86 L 396.882 -691.86 L 440.882 -681.86 L 477.882 -671.86 L 529.882 -654.86 L 550.882 -645.86 L 570.882 -635.86 L 592.882 -623.86 L 609.882 -611.86 L 621.882 -600.86 L 628.882 -593.86 L 635.882 -583.86 L 642.882 -569.86 L 645.882 -558.86 L 645.882 -543.86 L 640.882 -531.86 L 632.882 -517.86 L 623.882 -506.86 L 616.882 -499.86 L 598.882 -486.86 L 581.882 -476.86 L 557.882 -464.86 L 518.882 -448.86 L 475.882 -434.86 L 423.882 -421.86 L 376.882 -411.86 L 313.882 -401.86 L 267.882 -395.86 L 195.882 -388.86 L 150.882 -385.86 L 95.882 -383.86 L -6.118 -383.86 L -64.118 -385.86 L -105.12 -388.86 L -165.12 -394.86 L -208.12 -399.86 L -282.12 -411.86 L -319.12 -419.86 L -364.12 -429.86 L -403.12 -441.86 L -423.12 -448.86 L -445.12 -457.86 L -475.12 -471.86 L -497.12 -483.86 L -512.12 -493.86 L -522.12 -502.86 L -527.12 -507.86 L -536.12 -517.86 L -545.12 -533.86 L -549.12 -545.86 L -549.12 -557.86 L -545.12 -572.86 L -537.12 -587.86 L -526.12 -599.86 L -515.12 -610.86 L -500.12 -621.86 L -476.12 -634.86 L -457.12 -644.86 L -434.12 -654.86 L -398.12 -666.86 L -365.12 -676.86 L -327.12 -685.86 L -270.12 -697.86 L -211.12 -706.86 L -165.12 -712.86 L -111.12 -717.86 L -66.118 -720.86 L -22.118 -722.86 L 16.882 -723.86 Z"></path>
    </g>
</svg>