<svg xmlns="http://www.w3.org/2000/svg" viewBox="0 0 75.158 80.507" fill="#001132">
    <path d="M 6.702 43.452 L 22.474 43.463 L 38.246 43.475 L 53.203 43.497 L 68.16 43.519 L 68.283 43.542 L 68.405 43.566 L 68.528 43.589 L 68.651 43.613 L 68.826 43.676 L 68.995 43.751 L 69.155 43.828 L 69.311 43.907 L 69.472 43.998 L 69.618 44.097 L 69.747 44.193 L 69.898 44.31 L 70.09 44.498 L 70.257 44.713 L 70.407 44.961 L 70.502 45.21 L 70.547 45.353 L 70.593 45.495 L 70.638 45.638 L 70.683 45.78 L 70.708 45.896 L 70.733 46.012 L 70.758 46.127 L 70.783 46.243 L 70.796 46.699 L 70.809 47.155 L 70.822 47.61 L 70.835 48.066 L 70.835 49.98 L 70.835 51.894 L 70.835 53.809 L 70.835 55.723 L 70.827 56.127 L 70.819 56.531 L 70.811 56.935 L 70.803 57.339 L 70.768 57.48 L 70.733 57.62 L 70.698 57.761 L 70.662 57.901 L 70.614 58.04 L 70.566 58.179 L 70.498 58.307 L 70.431 58.435 L 70.369 58.53 L 70.308 58.624 L 70.248 58.724 L 70.189 58.823 L 70.106 58.924 L 70.022 59.026 L 69.932 59.131 L 69.842 59.235 L 69.762 59.321 L 69.682 59.406 L 69.582 59.484 L 69.482 59.562 L 69.394 59.625 L 69.305 59.688 L 69.195 59.725 L 69.084 59.763 L 69.034 59.779 L 68.983 59.795 L 68.933 59.811 L 68.883 59.827 L 68.819 59.841 L 68.756 59.854 L 68.693 59.868 L 68.63 59.882 L 68.53 59.884 L 68.43 59.886 L 68.331 59.888 L 68.231 59.889 L 61.356 59.916 L 54.481 59.942 L 47.605 59.968 L 40.73 59.994 L 40.727 62.124 L 40.725 64.253 L 40.722 66.383 L 40.719 68.513 L 39.122 68.507 L 37.524 68.502 L 35.927 68.496 L 34.33 68.49 L 34.343 66.383 L 34.357 64.275 L 34.371 62.167 L 34.385 60.06 L 27.446 60.018 L 20.507 59.976 L 13.568 59.934 L 6.629 59.892 L 6.556 59.884 L 6.484 59.876 L 6.406 59.857 L 6.327 59.837 L 6.258 59.806 L 6.189 59.774 L 6.111 59.737 L 6.032 59.699 L 5.931 59.647 L 5.83 59.595 L 5.72 59.535 L 5.61 59.476 L 5.494 59.355 L 5.378 59.235 L 5.286 59.13 L 5.193 59.025 L 5.093 58.904 L 4.993 58.784 L 4.893 58.615 L 4.794 58.447 L 4.722 58.3 L 4.65 58.152 L 4.597 58.038 L 4.543 57.924 L 4.51 57.792 L 4.476 57.66 L 4.452 57.538 L 4.429 57.416 L 4.406 57.267 L 4.383 57.119 L 4.361 56.97 L 4.338 56.821 L 4.321 56.234 L 4.304 55.647 L 4.287 55.06 L 4.271 54.473 L 4.271 52.845 L 4.271 51.217 L 4.271 49.59 L 4.271 47.962 L 4.276 47.477 L 4.281 46.993 L 4.286 46.508 L 4.29 46.023 L 4.294 45.87 L 4.298 45.716 L 4.302 45.562 L 4.306 45.409 L 4.336 45.298 L 4.367 45.187 L 4.398 45.076 L 4.428 44.965 L 4.483 44.851 L 4.537 44.737 L 4.591 44.623 L 4.646 44.51 L 4.712 44.431 L 4.777 44.352 L 4.843 44.273 L 4.909 44.194 L 4.974 44.127 L 5.039 44.06 L 5.104 43.992 L 5.169 43.925 L 5.256 43.86 L 5.343 43.796 L 5.43 43.731 L 5.517 43.666 L 5.615 43.619 L 5.712 43.573 L 5.816 43.542 L 5.921 43.512 L 6.02 43.498 L 6.12 43.484 L 6.218 43.476 L 6.317 43.468 L 6.398 43.465 L 6.48 43.461 L 6.591 43.456 L 6.702 43.452 Z M 25.08 49.657 C 24.779 49.657 24.492 49.715 24.232 49.822 C 23.971 49.928 23.736 50.081 23.539 50.271 C 23.342 50.461 23.183 50.687 23.072 50.938 C 22.962 51.189 22.901 51.465 22.901 51.755 C 22.901 52.045 22.962 52.321 23.072 52.572 C 23.183 52.823 23.342 53.049 23.539 53.239 C 23.736 53.428 23.971 53.582 24.232 53.688 C 24.492 53.794 24.779 53.853 25.08 53.853 C 25.381 53.853 25.667 53.794 25.928 53.688 C 26.188 53.582 26.423 53.428 26.62 53.239 C 26.817 53.049 26.977 52.823 27.087 52.572 C 27.197 52.321 27.258 52.045 27.258 51.755 C 27.258 51.465 27.197 51.189 27.087 50.938 C 26.977 50.687 26.817 50.461 26.62 50.271 C 26.423 50.081 26.188 49.928 25.928 49.822 C 25.667 49.715 25.381 49.657 25.08 49.657 Z M 14.99 49.663 C 14.69 49.663 14.403 49.722 14.142 49.828 C 13.882 49.935 13.647 50.088 13.45 50.278 C 13.253 50.468 13.093 50.694 12.983 50.945 C 12.873 51.196 12.812 51.472 12.812 51.762 C 12.812 52.051 12.873 52.327 12.983 52.578 C 13.093 52.83 13.253 53.056 13.45 53.245 C 13.647 53.435 13.882 53.589 14.142 53.695 C 14.403 53.801 14.69 53.86 14.99 53.86 C 15.291 53.86 15.578 53.801 15.838 53.695 C 16.099 53.589 16.334 53.435 16.531 53.245 C 16.728 53.056 16.887 52.83 16.998 52.578 C 17.108 52.327 17.169 52.051 17.169 51.762 C 17.169 51.472 17.108 51.196 16.998 50.945 C 16.887 50.694 16.728 50.468 16.531 50.278 C 16.334 50.088 16.099 49.935 15.838 49.828 C 15.578 49.722 15.291 49.663 14.99 49.663 Z M 35.489 49.749 C 35.188 49.749 34.901 49.808 34.641 49.914 C 34.38 50.02 34.145 50.174 33.948 50.364 C 33.751 50.554 33.592 50.78 33.481 51.031 C 33.371 51.282 33.31 51.558 33.31 51.847 C 33.31 52.137 33.371 52.413 33.481 52.664 C 33.592 52.915 33.751 53.141 33.948 53.331 C 34.145 53.521 34.38 53.675 34.641 53.781 C 34.901 53.887 35.188 53.946 35.489 53.946 C 35.79 53.946 36.076 53.887 36.337 53.781 C 36.597 53.675 36.832 53.521 37.029 53.331 C 37.226 53.141 37.386 52.915 37.496 52.664 C 37.606 52.413 37.667 52.137 37.667 51.847 C 37.667 51.558 37.606 51.282 37.496 51.031 C 37.386 50.78 37.226 50.554 37.029 50.364 C 36.832 50.174 36.597 50.02 36.337 49.914 C 36.076 49.808 35.79 49.749 35.489 49.749 Z" ></path>
    <path d="M 0.002 72.442 L 3.489 72.442 L 30.394 72.508 L 30.431 78.795 L 0.002 78.631 L 0 74.838 L 0.002 72.442 Z"></path>
    <path d="M 44.868 72.469 L 75.158 72.555 L 75.158 78.713 L 44.835 78.684 L 44.868 72.469 Z" ></path>
    <path d="M 34.74 72.39 L 40.464 72.442 L 40.626 72.495 L 40.712 72.656 L 40.73 78.432 L 40.664 78.647 L 40.47 78.744 L 34.65 78.69 L 34.464 78.597 L 34.413 78.383 L 34.48 72.598 L 34.532 72.442 L 34.74 72.39 Z" ></path>
    <path d="M 6.728 22.47 L 22.5 22.482 L 38.272 22.493 L 53.229 22.515 L 68.186 22.537 L 68.308 22.561 L 68.431 22.584 L 68.554 22.608 L 68.677 22.631 L 68.851 22.695 L 69.021 22.77 L 69.181 22.847 L 69.337 22.926 L 69.498 23.017 L 69.644 23.115 L 69.773 23.211 L 69.924 23.329 L 70.116 23.516 L 70.283 23.731 L 70.432 23.979 L 70.528 24.229 L 70.573 24.371 L 70.619 24.514 L 70.664 24.656 L 70.709 24.799 L 70.734 24.915 L 70.759 25.03 L 70.784 25.146 L 70.809 25.262 L 70.822 25.718 L 70.835 26.173 L 70.848 26.629 L 70.861 27.085 L 70.861 28.999 L 70.861 30.913 L 70.861 32.827 L 70.861 34.741 L 70.853 35.146 L 70.845 35.55 L 70.837 35.954 L 70.829 36.358 L 70.794 36.499 L 70.759 36.639 L 70.724 36.78 L 70.688 36.92 L 70.64 37.059 L 70.592 37.198 L 70.524 37.326 L 70.457 37.454 L 70.395 37.548 L 70.334 37.643 L 70.274 37.742 L 70.215 37.842 L 70.132 37.943 L 70.048 38.044 L 69.958 38.149 L 69.868 38.254 L 69.788 38.339 L 69.707 38.425 L 69.608 38.503 L 69.508 38.581 L 69.42 38.644 L 69.331 38.706 L 69.221 38.744 L 69.11 38.781 L 69.06 38.797 L 69.009 38.813 L 68.959 38.83 L 68.908 38.846 L 68.845 38.859 L 68.782 38.873 L 68.719 38.887 L 68.656 38.901 L 68.556 38.902 L 68.456 38.904 L 68.357 38.906 L 68.257 38.908 L 61.382 38.934 L 13.594 38.952 L 6.655 38.91 L 6.582 38.902 L 6.51 38.895 L 6.432 38.875 L 6.353 38.856 L 6.284 38.824 L 6.215 38.793 L 6.136 38.755 L 6.058 38.718 L 5.957 38.665 L 5.856 38.613 L 5.746 38.554 L 5.635 38.494 L 5.52 38.374 L 5.404 38.254 L 5.312 38.149 L 5.219 38.043 L 5.119 37.923 L 5.019 37.803 L 4.919 37.634 L 4.82 37.465 L 4.748 37.318 L 4.675 37.171 L 4.622 37.057 L 4.569 36.942 L 4.536 36.811 L 4.502 36.679 L 4.479 36.557 L 4.455 36.435 L 4.432 36.286 L 4.409 36.137 L 4.386 35.988 L 4.363 35.839 L 4.347 35.252 L 4.33 34.665 L 4.313 34.078 L 4.297 33.491 L 4.297 31.864 L 4.297 30.236 L 4.297 28.608 L 4.297 26.981 L 4.301 26.496 L 4.307 26.011 L 4.311 25.527 L 4.317 25.042 L 4.32 24.889 L 4.324 24.735 L 4.328 24.581 L 4.332 24.428 L 4.362 24.317 L 4.393 24.206 L 4.424 24.095 L 4.454 23.984 L 4.509 23.87 L 4.563 23.756 L 4.617 23.642 L 4.672 23.528 L 4.737 23.449 L 4.804 23.371 L 4.869 23.292 L 4.935 23.213 L 5 23.146 L 5.065 23.079 L 5.13 23.011 L 5.195 22.944 L 5.282 22.879 L 5.369 22.814 L 5.456 22.749 L 5.543 22.685 L 5.641 22.638 L 5.738 22.592 L 5.842 22.561 L 5.946 22.531 L 6.046 22.517 L 6.146 22.503 L 6.244 22.495 L 6.343 22.487 L 6.424 22.483 L 6.506 22.48 L 6.617 22.475 L 6.728 22.47 Z M 25.106 28.675 C 24.805 28.675 24.518 28.734 24.258 28.84 C 23.997 28.946 23.762 29.1 23.566 29.29 C 23.368 29.48 23.209 29.706 23.098 29.957 C 22.988 30.208 22.927 30.484 22.927 30.774 C 22.927 31.063 22.988 31.339 23.098 31.59 C 23.209 31.841 23.368 32.067 23.566 32.258 C 23.762 32.447 23.997 32.601 24.258 32.707 C 24.518 32.813 24.805 32.872 25.106 32.872 C 25.407 32.872 25.693 32.813 25.954 32.707 C 26.215 32.601 26.449 32.447 26.646 32.258 C 26.843 32.067 27.003 31.841 27.113 31.59 C 27.224 31.339 27.284 31.063 27.284 30.774 C 27.284 30.484 27.224 30.208 27.113 29.957 C 27.003 29.706 26.843 29.48 26.646 29.29 C 26.449 29.1 26.215 28.946 25.954 28.84 C 25.693 28.734 25.407 28.675 25.106 28.675 Z M 15.016 28.682 C 14.715 28.682 14.429 28.741 14.168 28.847 C 13.907 28.953 13.673 29.107 13.476 29.296 C 13.279 29.487 13.119 29.713 13.009 29.964 C 12.899 30.215 12.838 30.491 12.838 30.78 C 12.838 31.07 12.899 31.346 13.009 31.597 C 13.119 31.848 13.279 32.074 13.476 32.264 C 13.673 32.454 13.907 32.608 14.168 32.714 C 14.429 32.82 14.715 32.879 15.016 32.879 C 15.317 32.879 15.604 32.82 15.864 32.714 C 16.125 32.608 16.36 32.454 16.557 32.264 C 16.754 32.074 16.913 31.848 17.024 31.597 C 17.134 31.346 17.195 31.07 17.195 30.78 C 17.195 30.491 17.134 30.215 17.024 29.964 C 16.913 29.713 16.754 29.487 16.557 29.296 C 16.36 29.107 16.125 28.953 15.864 28.847 C 15.604 28.741 15.317 28.682 15.016 28.682 Z M 35.515 28.768 C 35.214 28.768 34.927 28.827 34.667 28.933 C 34.406 29.039 34.171 29.192 33.974 29.382 C 33.777 29.573 33.618 29.799 33.507 30.05 C 33.397 30.3 33.336 30.576 33.336 30.866 C 33.336 31.156 33.397 31.432 33.507 31.683 C 33.618 31.934 33.777 32.16 33.974 32.35 C 34.171 32.54 34.406 32.693 34.667 32.799 C 34.927 32.906 35.214 32.964 35.515 32.964 C 35.816 32.964 36.102 32.906 36.363 32.799 C 36.623 32.693 36.858 32.54 37.055 32.35 C 37.252 32.16 37.412 31.934 37.522 31.683 C 37.632 31.432 37.693 31.156 37.693 30.866 C 37.693 30.576 37.632 30.3 37.522 30.05 C 37.412 29.799 37.252 29.573 37.055 29.382 C 36.858 29.192 36.623 29.039 36.363 28.933 C 36.102 28.827 35.816 28.768 35.515 28.768 Z" ></path>
    <path d="M 6.728 1.724 L 22.5 1.735 L 38.272 1.747 L 53.229 1.769 L 68.186 1.791 L 68.308 1.814 L 68.431 1.838 L 68.554 1.861 L 68.677 1.885 L 68.851 1.948 L 69.021 2.023 L 69.181 2.1 L 69.337 2.179 L 69.498 2.271 L 69.644 2.369 L 69.773 2.465 L 69.924 2.582 L 70.116 2.77 L 70.283 2.985 L 70.432 3.233 L 70.528 3.482 L 70.573 3.625 L 70.619 3.767 L 70.664 3.91 L 70.709 4.052 L 70.734 4.168 L 70.759 4.284 L 70.784 4.399 L 70.809 4.515 L 70.822 4.971 L 70.835 5.427 L 70.848 5.883 L 70.861 6.338 L 70.861 8.253 L 70.861 10.167 L 70.861 12.081 L 70.861 13.995 L 70.853 14.399 L 70.845 14.803 L 70.837 15.207 L 70.829 15.612 L 70.794 15.752 L 70.759 15.892 L 70.724 16.033 L 70.688 16.174 L 70.64 16.313 L 70.592 16.451 L 70.524 16.579 L 70.457 16.707 L 70.395 16.802 L 70.334 16.897 L 70.274 16.996 L 70.215 17.095 L 70.132 17.197 L 70.048 17.298 L 69.958 17.403 L 69.868 17.508 L 69.788 17.593 L 69.707 17.678 L 69.608 17.757 L 69.508 17.835 L 69.42 17.897 L 69.331 17.96 L 69.221 17.997 L 69.11 18.035 L 69.06 18.051 L 69.009 18.067 L 68.959 18.083 L 68.908 18.099 L 68.845 18.113 L 68.782 18.127 L 68.719 18.14 L 68.656 18.154 L 68.556 18.156 L 68.456 18.158 L 68.357 18.16 L 68.257 18.162 L 61.382 18.188 L 13.594 18.206 L 6.655 18.164 L 6.582 18.156 L 6.51 18.148 L 6.432 18.129 L 6.353 18.109 L 6.284 18.078 L 6.215 18.047 L 6.136 18.009 L 6.058 17.971 L 5.957 17.919 L 5.856 17.867 L 5.746 17.808 L 5.635 17.748 L 5.52 17.628 L 5.404 17.508 L 5.312 17.402 L 5.219 17.297 L 5.119 17.177 L 5.019 17.056 L 4.919 16.888 L 4.82 16.719 L 4.748 16.572 L 4.675 16.425 L 4.622 16.31 L 4.569 16.196 L 4.536 16.064 L 4.502 15.932 L 4.479 15.811 L 4.455 15.689 L 4.432 15.54 L 4.409 15.391 L 4.386 15.242 L 4.363 15.093 L 4.347 14.506 L 4.33 13.919 L 4.313 13.332 L 4.297 12.745 L 4.297 11.117 L 4.297 9.49 L 4.297 7.862 L 4.297 6.234 L 4.301 5.749 L 4.307 5.265 L 4.311 4.78 L 4.317 4.296 L 4.32 4.142 L 4.324 3.988 L 4.328 3.835 L 4.332 3.681 L 4.362 3.57 L 4.393 3.459 L 4.424 3.348 L 4.454 3.237 L 4.509 3.123 L 4.563 3.01 L 4.617 2.896 L 4.672 2.782 L 4.737 2.703 L 4.804 2.624 L 4.869 2.546 L 4.935 2.466 L 5 2.399 L 5.065 2.332 L 5.13 2.264 L 5.195 2.197 L 5.282 2.133 L 5.369 2.068 L 5.456 2.003 L 5.543 1.938 L 5.641 1.891 L 5.738 1.845 L 5.842 1.814 L 5.946 1.784 L 6.046 1.77 L 6.146 1.756 L 6.244 1.748 L 6.343 1.74 L 6.424 1.737 L 6.506 1.734 L 6.617 1.728 L 6.728 1.724 Z M 25.106 7.929 C 24.805 7.929 24.518 7.987 24.258 8.094 C 23.997 8.2 23.762 8.354 23.566 8.543 C 23.368 8.733 23.209 8.959 23.098 9.21 C 22.988 9.461 22.927 9.738 22.927 10.027 C 22.927 10.317 22.988 10.593 23.098 10.844 C 23.209 11.095 23.368 11.321 23.566 11.511 C 23.762 11.701 23.997 11.854 24.258 11.961 C 24.518 12.067 24.805 12.125 25.106 12.125 C 25.407 12.125 25.693 12.067 25.954 11.961 C 26.215 11.854 26.449 11.701 26.646 11.511 C 26.843 11.321 27.003 11.095 27.113 10.844 C 27.224 10.593 27.284 10.317 27.284 10.027 C 27.284 9.738 27.224 9.461 27.113 9.21 C 27.003 8.959 26.843 8.733 26.646 8.543 C 26.449 8.354 26.215 8.2 25.954 8.094 C 25.693 7.987 25.407 7.929 25.106 7.929 Z M 15.016 7.936 C 14.715 7.936 14.429 7.994 14.168 8.1 C 13.907 8.207 13.673 8.36 13.476 8.55 C 13.279 8.74 13.119 8.966 13.009 9.217 C 12.899 9.468 12.838 9.744 12.838 10.034 C 12.838 10.323 12.899 10.6 13.009 10.851 C 13.119 11.102 13.279 11.328 13.476 11.518 C 13.673 11.707 13.907 11.861 14.168 11.967 C 14.429 12.074 14.715 12.132 15.016 12.132 C 15.317 12.132 15.604 12.074 15.864 11.967 C 16.125 11.861 16.36 11.707 16.557 11.518 C 16.754 11.328 16.913 11.102 17.024 10.851 C 17.134 10.6 17.195 10.323 17.195 10.034 C 17.195 9.744 17.134 9.468 17.024 9.217 C 16.913 8.966 16.754 8.74 16.557 8.55 C 16.36 8.36 16.125 8.207 15.864 8.1 C 15.604 7.994 15.317 7.936 15.016 7.936 Z M 35.515 8.021 C 35.214 8.021 34.927 8.08 34.667 8.186 C 34.406 8.292 34.171 8.446 33.974 8.636 C 33.777 8.826 33.618 9.052 33.507 9.303 C 33.397 9.554 33.336 9.83 33.336 10.12 C 33.336 10.409 33.397 10.685 33.507 10.937 C 33.618 11.188 33.777 11.414 33.974 11.603 C 34.171 11.793 34.406 11.946 34.667 12.053 C 34.927 12.159 35.214 12.218 35.515 12.218 C 35.816 12.218 36.102 12.159 36.363 12.053 C 36.623 11.946 36.858 11.793 37.055 11.603 C 37.252 11.414 37.412 11.188 37.522 10.937 C 37.632 10.685 37.693 10.409 37.693 10.12 C 37.693 9.83 37.632 9.554 37.522 9.303 C 37.412 9.052 37.252 8.826 37.055 8.636 C 36.858 8.446 36.623 8.292 36.363 8.186 C 36.102 8.08 35.816 8.021 35.515 8.021 Z" ></path>
</svg>