<svg xmlns="http://www.w3.org/2000/svg" viewBox="0 0 75.158 80.507" fill="#001132">
    <g transform="matrix(0.051024, 0, 0, 0.051024, 35.092072, 37.495693)">
        <path d="M 557.241 -690.45 L 588.241 -690.45 L 607.241 -687.45 L 625.241 -681.45 L 644.241 -671.45 L 660.241 -660.45 L 670.241 -652.45 L 686.241 -636.45 L 695.241 -624.45 L 705.241 -608.45 L 714.241 -589.45 L 718.241 -576.45 L 721.241 -559.45 L 721.241 -528.45 L 719.241 -512.45 L 715.241 -498.45 L 708.241 -482.45 L 698.241 -464.45 L 686.241 -447.45 L 677.241 -437.45 L 666.241 -427.45 L 646.241 -414.45 L 624.241 -402.45 L 612.241 -398.45 L 591.241 -395.45 L 573.241 -394.45 L 570.241 -382.45 L 557.241 -345.45 L 546.241 -312.45 L 532.241 -272.45 L 517.241 -229.45 L 502.241 -185.45 L 491.241 -152.45 L 476.241 -109.45 L 467.241 -83.451 L 464.241 -75.451 L 464.241 -70.451 L 473.241 -60.451 L 487.241 -48.451 L 496.241 -38.451 L 503.241 -28.451 L 513.241 -12.451 L 520.241 3.549 L 525.241 18.549 L 529.241 39.549 L 529.241 72.549 L 525.241 92.549 L 519.241 108.549 L 509.241 127.549 L 499.241 142.549 L 489.241 155.549 L 477.241 167.549 L 462.241 178.549 L 447.241 187.549 L 435.241 193.549 L 417.241 199.549 L 401.241 202.549 L 391.241 203.549 L 364.241 203.549 L 346.241 200.549 L 330.241 195.549 L 314.241 187.549 L 302.241 180.549 L 289.241 170.549 L 278.241 161.549 L 270.241 153.549 L 258.241 137.549 L 246.241 118.549 L 239.241 103.549 L 233.241 82.549 L 231.241 70.549 L 231.241 45.549 L 234.241 27.549 L 240.241 6.549 L 240.241 0.549 L 230.241 -9.451 L 210.241 -23.451 L 193.241 -36.451 L 180.241 -46.451 L 161.241 -60.451 L 140.241 -76.451 L 120.241 -91.451 L 102.241 -104.45 L 85.241 -117.45 L 72.241 -127.45 L 56.241 -139.45 L 37.241 -153.45 L 26.241 -160.45 L 20.241 -163.45 L 13.241 -163.45 L 7.241 -159.45 L 0.241 -153.45 L -13.759 -148.45 L -32.759 -143.45 L -53.759 -139.45 L -67.759 -136.45 L -70.759 -134.45 L -75.759 -114.45 L -92.759 -60.451 L -100.76 -36.451 L -112.76 1.549 L -121.76 30.549 L -142.76 97.549 L -160.76 154.549 L -177.76 207.549 L -187.76 240.549 L -196.76 269.549 L -210.76 311.549 L -211.76 319.549 L -205.76 326.549 L -197.76 333.549 L -185.76 345.549 L -175.76 359.549 L -165.76 380.549 L -157.76 402.549 L -154.76 415.549 L -153.76 422.549 L -153.76 456.549 L -156.76 472.549 L -162.76 489.549 L -170.76 506.549 L -180.76 522.549 L -188.76 533.549 L -197.76 543.549 L -204.76 550.549 L -218.76 561.549 L -233.76 570.549 L -250.76 578.549 L -262.76 582.549 L -284.76 586.549 L -296.76 587.549 L -313.76 587.549 L -330.76 585.549 L -351.76 580.549 L -364.76 574.549 L -375.76 568.549 L -389.76 558.549 L -400.76 549.549 L -405.76 545.549 L -405.76 543.549 L -408.76 542.549 L -417.76 531.549 L -427.76 517.549 L -439.76 496.549 L -445.76 481.549 L -450.76 460.549 L -451.76 453.549 L -451.76 426.549 L -447.76 404.549 L -441.76 386.549 L -431.76 367.549 L -418.76 348.549 L -407.76 334.549 L -397.76 325.549 L -380.76 313.549 L -358.76 301.549 L -339.76 293.549 L -328.76 291.549 L -300.76 290.549 L -294.76 288.549 L -288.76 272.549 L -274.76 228.549 L -262.76 192.549 L -252.76 158.549 L -242.76 127.549 L -230.76 88.549 L -220.76 57.549 L -198.76 -12.451 L -181.76 -66.451 L -169.76 -105.45 L -155.76 -146.45 L -152.76 -159.45 L -154.76 -165.45 L -164.76 -175.45 L -172.76 -182.45 L -184.76 -194.45 L -193.76 -208.45 L -206.76 -235.45 L -212.76 -254.45 L -215.76 -270.45 L -216.76 -279.45 L -216.76 -293.45 L -211.76 -323.45 L -205.76 -342.45 L -197.76 -359.45 L -187.76 -374.45 L -176.76 -387.45 L -164.76 -398.45 L -149.76 -409.45 L -129.76 -421.45 L -113.76 -428.45 L -97.759 -432.45 L -76.759 -434.45 L -57.759 -434.45 L -37.759 -432.45 L -20.759 -428.45 L -5.759 -422.45 L 12.241 -412.45 L 25.241 -402.45 L 36.241 -392.45 L 45.241 -381.45 L 56.241 -366.45 L 66.241 -349.45 L 73.241 -333.45 L 78.241 -317.45 L 81.241 -297.45 L 81.241 -267.45 L 78.241 -253.45 L 74.241 -246.45 L 68.241 -239.45 L 72.241 -237.45 L 81.241 -228.45 L 91.241 -220.45 L 109.241 -206.45 L 125.241 -194.45 L 142.241 -182.45 L 155.241 -171.45 L 173.241 -158.45 L 193.241 -144.45 L 204.241 -135.45 L 219.241 -123.45 L 241.241 -108.45 L 257.241 -96.451 L 271.241 -84.451 L 285.241 -74.451 L 290.241 -70.451 L 297.241 -69.451 L 302.241 -70.451 L 317.241 -79.451 L 341.241 -88.451 L 357.241 -91.451 L 375.241 -93.451 L 379.241 -95.451 L 383.241 -103.45 L 391.241 -124.45 L 403.241 -160.45 L 418.241 -204.45 L 445.241 -285.45 L 460.241 -328.45 L 469.241 -355.45 L 479.241 -383.45 L 488.241 -410.45 L 489.241 -418.45 L 484.241 -424.45 L 470.241 -434.45 L 458.241 -446.45 L 447.241 -461.45 L 438.241 -477.45 L 431.241 -493.45 L 424.241 -518.45 L 423.241 -525.45 L 423.241 -555.45 L 427.241 -577.45 L 433.241 -595.45 L 440.241 -609.45 L 451.241 -626.45 L 462.241 -640.45 L 472.241 -651.45 L 485.241 -661.45 L 501.241 -672.45 L 518.241 -681.45 L 536.241 -687.45 L 557.241 -690.45 Z"></path>
        <path d="M -684.76 -692.45 L -626.76 -692.45 L -563.76 -691.45 L -558.76 -690.45 L -558.76 673.549 L 766.241 673.549 L 784.241 674.549 L 785.241 677.549 L 785.241 793.549 L 782.241 797.549 L 774.241 799.549 L 520.241 799.549 L 187.241 800.549 L -682.76 800.549 L -685.76 798.549 L -686.76 793.549 L -687.76 729.549 L -687.76 -598.45 L -686.76 -686.45 L -684.76 -692.45 Z"></path>
    </g>
</svg>