<svg xmlns="http://www.w3.org/2000/svg" viewBox="0 0 75.158 80.507" fill="#001132">
    <path d="M 36.899 7.097 L 38.248 7.11 L 38.642 7.264 L 38.994 7.513 L 39.62 8.039 L 40.091 8.458 L 40.667 9.191 L 72.75 64.774 L 74.268 67.443 L 74.844 68.699 L 75.158 69.641 L 75.158 70.426 L 75.032 71.256 L 74.7 72.079 L 74.268 72.573 L 73.693 72.939 L 73.169 73.2 L 72.593 73.305 L 71.965 73.357 L 2.669 73.305 L 2.094 73.148 L 1.361 72.782 L 0.89 72.311 L 0.338 71.619 L 0.053 70.959 L 0 70.165 L 0 69.432 L 0.209 68.804 L 0.628 67.967 L 34.543 9.138 L 35.067 8.406 L 35.8 7.673 L 36.585 7.202 L 36.899 7.097 Z M 32.98 23.712 L 29.517 45.597 L 36.689 45.513 L 31.828 64.913 L 46.279 40.177 L 38.835 40.28 L 43.715 23.71 L 32.98 23.712 Z"></path>
</svg>