<svg xmlns="http://www.w3.org/2000/svg" viewBox="0 0 75.158 80.507">
    <g transform="matrix(0.05498, 0, 0, 0.05498, 34.899246, 37.281914)">
        <path d="M 163.241 -279.95 L 670.241 -279.95 L 686.241 -277.95 L 699.241 -272.95 L 710.241 -264.95 L 713.241 -262.95 L 713.241 -260.95 L 715.241 -260.95 L 723.241 -249.95 L 728.241 -239.95 L 732.241 -229.95 L 732.241 204.049 L 726.241 219.049 L 720.241 229.049 L 711.241 239.049 L 703.241 245.049 L 693.241 250.049 L 683.241 253.049 L 675.241 254.049 L 388.371 254.276 L 390.497 452.823 L 77.241 471.049 L 69.241 464.049 L 33.241 428.049 L 25.241 421.049 L -14.759 381.049 L -19.759 378.049 L -45.759 378.049 L -45.759 405.049 L -47.759 406.049 L -560.76 406.049 L -561.76 405.049 L -561.76 133.049 L -549.76 -80.951 L -540.76 -239.95 L -539.76 -259.95 L -536.76 -262.95 L -478.76 -261.95 L -477.76 -260.95 L -475.76 -225.95 L -463.76 -12.951 L -456.76 110.049 L -455.76 140.049 L -448.76 136.049 L -426.76 121.049 L -389.76 96.049 L -346.76 67.049 L -313.76 45.049 L -270.76 16.049 L -254.76 5.049 L -250.76 3.049 L -250.76 37.049 L -195.76 36.049 L -190.76 33.049 L -32.759 -124.95 L -27.759 -139.95 L -20.759 -148.95 L -14.759 -153.95 L -6.759 -157.95 L -2.759 -158.95 L 12.241 -158.95 L 23.241 -154.95 L 33.241 -145.95 L 38.241 -138.95 L 100.241 -138.95 L 101.241 -224.95 L 105.241 -240.95 L 111.241 -251.95 L 118.241 -260.95 L 129.241 -269.95 L 141.241 -275.95 L 152.241 -278.95 L 163.241 -279.95 Z M 160.241 -231.95 L 154.241 -228.95 L 150.241 -223.95 L 149.241 -221.95 L 148.241 -23.951 L 148.241 129.049 L 149.241 197.049 L 153.241 203.049 L 158.241 206.049 L 306.241 207.049 L 557.241 207.049 L 675.241 206.049 L 681.241 202.049 L 684.241 196.049 L 684.241 -221.95 L 680.241 -227.95 L 676.241 -230.95 L 673.241 -231.95 L 160.241 -231.95 Z M 37.241 -104.95 L 26.241 -92.951 L 17.241 -87.951 L 6.241 -85.951 L -4.759 -86.951 L -14.759 -91.951 L -19.759 -90.951 L -179.76 69.049 L -249.76 69.049 L -250.76 70.049 L -250.76 140.049 L -246.76 139.049 L -229.76 127.049 L -172.76 89.049 L -98.759 39.049 L -56.759 11.049 L -48.759 5.049 L -45.759 4.049 L -45.759 344.049 L -42.759 345.049 L -12.234 355.295 L 18.777 394.755 L 69.043 451.959 L 92.241 438.049 L 214.576 458.672 L 223.421 445.915 L 319.365 448.301 L 321.762 458.085 L 380.606 443.538 L 387.571 254.41 L 154.241 253.049 L 142.241 250.049 L 128.241 243.049 L 116.241 232.049 L 108.241 220.049 L 103.241 206.049 L 102.241 199.049 L 100.953 -105.005 L 37.241 -104.95 Z M -500.76 249.049 L -501.76 336.049 L -500.76 338.049 L -410.76 338.049 L -409.76 337.049 L -409.76 249.049 L -500.76 249.049 Z M -349.76 249.049 L -349.76 337.049 L -348.76 338.049 L -258.76 338.049 L -257.76 326.049 L -257.76 254.049 L -258.76 249.049 L -349.76 249.049 Z M -197.76 249.049 L -197.76 337.049 L -196.76 338.049 L -106.76 338.049 L -106.76 249.049 L -197.76 249.049 Z" fill="#001132"></path>
        <path d="M 370.627 254.04 L 400.232 254.038 L 402.142 256.038 L 401.187 471.038 L 400.232 472.038 L 246.474 472.046 L 235.97 484.046 L 229.284 488.047 L 220.689 491.047 L 210.184 491.047 L 200.634 488.048 L 192.04 482.048 L 184.399 472.049 L 71.707 471.054 L 64.067 464.055 L 29.687 428.056 L 22.047 421.057 L -16.154 381.058 L -20.928 378.059 L -45.759 378.06 L -45.759 344.06 L -5.649 344.058 L 19.182 370.057 L 26.821 377.056 L 80.303 433.054 L 86.033 437.053 L 183.444 437.049 L 192.04 426.048 L 200.634 420.048 L 208.275 417.048 L 221.645 417.047 L 232.15 421.046 L 239.789 427.046 L 246.474 437.046 L 369.672 438.04 L 369.672 255.04 L 370.627 254.04 Z" fill="#f3e9d4"></path>
        <path d="M 602.241 -180.95 L 612.241 -178.95 L 617.241 -174.95 L 620.241 -169.95 L 621.241 -161.95 L 617.241 -151.95 L 602.241 -127.95 L 591.241 -111.95 L 583.241 -100.95 L 573.241 -87.951 L 562.241 -75.951 L 551.241 -65.951 L 541.241 -59.951 L 532.241 -56.951 L 515.241 -56.951 L 501.241 -61.951 L 482.241 -71.951 L 466.241 -80.951 L 455.241 -84.951 L 447.241 -83.951 L 437.241 -76.951 L 427.241 -67.951 L 425.241 -67.951 L 425.241 -65.951 L 418.241 -59.951 L 411.241 -51.951 L 401.241 -41.951 L 394.241 -33.951 L 376.241 -15.951 L 362.241 -5.951 L 354.241 -1.951 L 345.241 0.049 L 332.241 0.049 L 322.241 -2.951 L 311.241 -8.951 L 298.241 -18.951 L 288.241 -26.951 L 284.241 -28.951 L 277.241 -27.951 L 263.241 -17.951 L 248.241 -2.951 L 241.241 5.049 L 228.241 21.049 L 221.241 29.049 L 214.241 33.049 L 206.241 33.049 L 198.241 29.049 L 194.241 22.049 L 193.241 13.049 L 197.241 5.049 L 210.241 -10.951 L 222.241 -24.951 L 236.241 -39.951 L 248.241 -49.951 L 261.241 -57.951 L 270.241 -61.951 L 279.241 -63.951 L 291.241 -62.951 L 301.241 -58.951 L 312.241 -51.951 L 327.241 -39.951 L 337.241 -33.951 L 343.241 -34.951 L 352.241 -40.951 L 365.241 -52.951 L 395.241 -84.951 L 408.241 -97.951 L 422.241 -108.95 L 438.241 -116.95 L 447.241 -118.95 L 459.241 -118.95 L 472.241 -115.95 L 495.241 -104.95 L 510.241 -95.951 L 521.241 -90.951 L 528.241 -91.951 L 537.241 -98.951 L 544.241 -106.95 L 553.241 -117.95 L 566.241 -135.95 L 577.241 -152.95 L 585.241 -165.95 L 593.241 -176.95 L 598.241 -179.95 L 602.241 -180.95 Z" fill="#001132"></path>
        <path d="M -2.759 -158.95 L 12.241 -158.95 L 23.241 -154.95 L 33.241 -145.95 L 38.241 -138.95 L 100.298 -139.383 L 100.69 -104.983 L 37.241 -103.95 L 28.241 -93.951 L 23.241 -89.951 L 13.241 -85.951 L 2.241 -84.951 L -7.759 -86.951 L -14.759 -90.951 L -19.759 -89.951 L -179.76 70.049 L -250.76 70.049 L -250.76 37.049 L -195.76 36.049 L -190.76 33.049 L -32.759 -124.95 L -27.759 -139.95 L -20.759 -148.95 L -14.759 -153.95 L -6.759 -157.95 L -2.759 -158.95 Z" fill="#f3e9d4"></path>
        <path d="M 545.241 -17.951 L 617.241 -17.951 L 617.241 167.049 L 545.241 167.049 L 544.241 29.049 L 544.241 -16.951 L 545.241 -17.951 Z" fill="#001132"></path>
        <path d="M 421.241 28.049 L 493.241 28.049 L 493.241 167.049 L 422.241 167.049 L 421.241 166.049 L 421.241 28.049 Z" fill="#001132"></path>
        <path d="M -580.76 -382.95 L -562.76 -382.95 L -532.76 -380.95 L -516.76 -377.95 L -504.76 -372.95 L -492.76 -361.95 L -485.76 -350.95 L -480.76 -336.95 L -477.76 -315.95 L -477.76 -287.95 L -499.76 -286.95 L -532.76 -286.95 L -533.76 -293.95 L -534.76 -322.95 L -535.76 -324.95 L -564.76 -326.95 L -580.76 -326.95 L -589.76 -325.95 L -587.76 -330.95 L -581.76 -338.95 L -579.76 -348.95 L -580.76 -359.95 L -583.76 -358.95 L -599.76 -317.95 L -601.76 -314.95 L -606.76 -315.95 L -618.76 -321.95 L -628.76 -330.95 L -632.76 -338.95 L -634.76 -345.95 L -633.76 -354.95 L -629.76 -364.95 L -623.76 -371.95 L -613.76 -377.95 L -597.76 -381.95 L -580.76 -382.95 Z" fill="#001132"></path>
        <path d="M 306.241 53.049 L 380.241 53.049 L 380.241 167.049 L 306.241 167.049 L 306.241 53.049 Z" fill="#001132"></path>
        <path d="M 262.241 103.049 L 265.241 104.049 L 265.241 167.049 L 191.241 167.049 L 191.241 104.049 L 262.241 103.049 Z" fill="#001132"></path>
    </g>
</svg>