<svg xmlns="http://www.w3.org/2000/svg" viewBox="0 0 75.121 80.656" fill="#001132">
    <path id="XMLID_29_" d="M 24.617 32.083 C 27.564 32.083 29.953 29.695 29.953 26.749 C 29.953 23.8 27.564 21.414 24.617 21.414 C 21.67 21.414 19.281 23.8 19.281 26.749 C 19.281 29.695 21.67 32.083 24.617 32.083 Z"></path>
    <path id="XMLID_28_" d="M 46.052 21.924 C 43.105 21.924 40.716 24.31 40.716 27.259 C 40.716 30.205 43.105 32.593 46.052 32.593 C 48.998 32.593 51.387 30.205 51.387 27.259 C 51.387 24.31 48.998 21.924 46.052 21.924 Z"></path>
    <path id="XMLID_27_" d="M 24.617 19.554 C 27.763 19.554 30.415 21.597 31.391 24.415 C 31.991 23.697 32.827 23.226 33.757 23.041 C 32.67 21.781 31.988 20.16 31.988 18.369 C 31.988 16.999 32.394 15.729 33.062 14.638 C 32.701 14.396 32.153 14.254 31.924 14.254 L 24.787 14.254 C 23.778 14.254 22.921 14.537 22.506 15.448 L 19.751 21.483 C 21.143 20.195 23.026 19.554 24.617 19.554 Z"></path>
    <path id="XMLID_26_" d="M 28.356 13.355 C 30.931 13.355 33.021 11.266 33.021 8.691 C 33.021 6.112 30.931 4.024 28.356 4.024 C 25.779 4.024 23.689 6.112 23.689 8.691 C 23.689 11.266 25.779 13.355 28.356 13.355 Z"></path>
    <path id="XMLID_25_" d="M 55.192 23.551 C 54.105 22.291 53.423 20.67 53.423 18.879 C 53.423 18.826 53.437 18.777 53.439 18.723 L 46.985 18.723 C 46.962 18.723 46.432 18.822 46.33 18.855 C 46.302 19.272 46.25 19.68 46.153 20.073 C 49.254 20.118 51.861 22.138 52.826 24.925 C 53.425 24.207 54.262 23.736 55.192 23.551 Z"></path>
    <path id="XMLID_24_" d="M 50.677 17.792 C 51.889 17.792 52.982 17.331 53.83 16.595 C 54.166 15.599 54.697 14.698 55.404 13.951 C 55.469 13.633 55.506 13.303 55.506 12.965 C 55.506 10.298 53.344 8.139 50.677 8.139 C 48.01 8.139 45.849 10.298 45.849 12.965 C 45.849 15.632 48.01 17.792 50.677 17.792 Z"></path>
    <path id="XMLID_23_" d="M 35.103 24.731 C 33.925 24.731 32.962 25.067 32.495 26.096 L 31.703 27.832 C 31.499 29.169 30.927 30.372 30.092 31.361 L 30.064 31.423 C 31.171 31.649 32.12 32.31 32.716 33.267 C 32.808 33.415 32.924 33.543 32.998 33.704 L 35.451 39.078 L 37.672 34.213 C 38.22 33.004 39.338 32.186 40.625 31.93 C 39.538 30.67 38.856 29.049 38.856 27.259 C 38.856 26.366 39.04 25.521 39.338 24.731 C 34.428 24.731 36.111 24.731 35.103 24.731 Z"></path>
    <path id="XMLID_22_" d="M 35.995 56.095 C 35.094 56.639 33.996 56.849 32.952 56.634 L 32.952 66.113 C 33.378 67.071 34.33 67.743 35.446 67.743 C 36.419 67.743 37.232 67.208 37.718 66.443 L 37.718 56.123 C 37.146 56.239 36.56 56.22 35.995 56.095 Z"></path>
    <path id="XMLID_21_" d="M 39.183 23.703 C 39.419 23.703 39.644 23.663 39.872 23.635 C 40.806 22.048 42.318 20.865 44.127 20.358 C 44.375 19.743 44.519 19.074 44.519 18.369 C 44.519 15.421 42.13 13.034 39.183 13.034 C 36.237 13.034 33.848 15.421 33.848 18.369 C 33.848 21.316 36.237 23.703 39.183 23.703 Z"></path>
    <path id="XMLID_20_" d="M 8.517 53.538 C 8.129 52.501 8.169 51.377 8.629 50.37 L 11.523 44.029 L 16.237 33.703 C 16.755 32.561 17.78 31.755 18.976 31.451 L 18.976 31.161 C 18.113 30.061 17.571 28.713 17.471 27.234 C 17.372 27.203 16.84 27.102 16.816 27.102 L 9.431 27.102 C 8.382 27.102 7.5 27.398 7.071 28.336 L 0.187 43.419 C -0.287 44.456 0.17 45.681 1.208 46.154 C 2.255 46.632 3.473 46.163 3.943 45.133 L 7.272 37.84 C 7.272 38.435 7.265 47.457 7.265 63.545 C 7.265 64.913 8.374 66.022 9.742 66.022 C 11.11 66.022 12.219 64.913 12.219 63.545 L 12.219 56.205 C 11.694 56.192 11.168 56.082 10.675 55.855 C 9.671 55.398 8.903 54.574 8.517 53.538 Z"></path>
    <path id="XMLID_19_" d="M 14.027 55.842 L 14.027 63.544 C 14.027 64.834 15.024 65.86 16.283 65.977 L 16.283 53.548 L 16.163 53.809 C 15.736 54.749 14.946 55.446 14.027 55.842 Z"></path>
    <path id="XMLID_18_" d="M 13.124 26.171 C 15.791 26.171 17.952 24.011 17.952 21.345 C 17.952 18.677 15.791 16.518 13.124 16.518 C 10.457 16.518 8.295 18.677 8.295 21.345 C 8.295 24.011 10.457 26.171 13.124 26.171 Z"></path>
    <path id="XMLID_17_" d="M 30.064 50.88 L 31.085 48.644 L 31.085 44.98 L 31.921 46.812 L 34.428 41.318 L 31.305 34.475 C 30.834 33.44 29.853 33.111 28.697 33.111 C 10.831 33.111 33.003 33.111 20.536 33.111 C 19.376 33.111 18.4 33.437 17.929 34.475 L 10.321 51.143 C 9.798 52.288 10.303 53.642 11.45 54.165 C 12.588 54.687 13.946 54.19 14.472 53.037 L 18.15 44.977 C 18.15 51.064 18.143 50.821 18.143 73.384 C 18.143 74.896 19.368 76.122 20.881 76.122 C 22.393 76.122 23.619 74.896 23.619 73.384 L 23.619 57.065 L 25.617 57.065 L 25.617 73.384 C 25.617 74.896 26.842 76.122 28.354 76.122 C 29.866 76.122 31.092 74.896 31.092 73.384 L 31.092 55.683 C 30.592 55.239 30.191 54.692 29.951 54.048 C 29.549 52.97 29.647 51.793 30.064 50.88 Z"></path>
    <path id="XMLID_16_" d="M 74.915 43.274 L 67.307 26.606 C 66.831 25.563 65.846 25.241 64.699 25.241 C 46.902 25.241 68.987 25.241 56.538 25.241 C 55.371 25.241 54.401 25.569 53.93 26.606 L 53.138 28.342 C 52.934 29.679 52.362 30.883 51.527 31.871 L 51.499 31.932 C 52.856 32.21 53.96 33.183 54.433 34.214 L 62.039 50.88 C 62.499 51.886 62.539 53.011 62.152 54.048 C 62.021 54.4 61.831 54.716 61.617 55.014 L 61.617 65.515 C 61.617 67.027 62.842 68.252 64.355 68.252 C 65.867 68.252 67.092 67.027 67.092 65.515 C 67.092 50.426 67.085 41.986 67.085 37.108 L 70.764 45.167 C 71.289 46.321 72.648 46.818 73.786 46.296 C 74.933 45.773 75.438 44.419 74.915 43.274 Z"></path>
    <path id="XMLID_15_" d="M 54.504 54.318 L 54.384 54.055 L 54.387 54.214 L 54.387 66.623 C 54.813 67.58 55.765 68.253 56.881 68.253 C 58.393 68.253 59.619 67.027 59.619 65.515 L 59.619 56.492 C 57.674 57.15 55.369 56.212 54.504 54.318 Z"></path>
    <path id="XMLID_14_" d="M 60.618 24.213 C 63.565 24.213 65.954 21.826 65.954 18.879 C 65.954 15.931 63.565 13.544 60.618 13.544 C 57.672 13.544 55.283 15.931 55.283 18.879 C 55.283 21.826 57.672 24.213 60.618 24.213 Z"></path>
    <path id="XMLID_13_" d="M 52.74 34.985 C 52.268 33.951 51.289 33.62 50.132 33.62 C 32.265 33.62 54.437 33.62 41.971 33.62 C 40.805 33.62 39.835 33.951 39.363 34.985 L 31.756 51.653 C 31.233 52.798 31.738 54.152 32.884 54.675 C 34.022 55.197 35.381 54.7 35.907 53.546 L 39.585 45.487 L 39.585 54.177 C 39.585 54.19 39.578 54.201 39.578 54.214 L 39.578 73.894 C 39.578 75.406 40.803 76.632 42.316 76.632 C 43.828 76.632 45.053 75.406 45.053 73.894 L 45.053 57.575 L 47.051 57.575 L 47.051 73.894 C 47.051 75.406 48.277 76.632 49.789 76.632 C 51.302 76.632 52.527 75.406 52.527 73.894 L 52.527 54.214 C 52.527 54.202 52.52 54.19 52.52 54.177 L 52.52 45.49 L 56.197 53.547 C 56.58 54.387 57.408 54.882 58.274 54.882 C 58.591 54.882 58.913 54.815 59.219 54.675 C 60.366 54.152 60.871 52.798 60.348 51.653 L 52.74 34.985 Z"></path>
</svg>