<svg xmlns="http://www.w3.org/2000/svg" viewBox="0 0 75.158 80.507">
    <g transform="matrix(0.039329, 0, 0, 0.039329, 35.662102, 38.127777)">
        <path d="M -261.76 -616.95 L -247.76 -615.95 L -238.76 -611.95 L -230.76 -605.95 L -224.76 -596.95 L -221.76 -587.95 L -221.76 -269.95 L -212.76 -266.95 L -197.76 -257.95 L -187.76 -249.95 L -178.76 -241.95 L -168.76 -228.95 L -159.76 -212.95 L -153.76 -197.95 L -150.76 -183.95 L -149.76 -174.95 L -149.76 -159.95 L -151.76 -143.95 L -153.76 -135.95 L 450.241 -135.95 L 466.241 -133.95 L 487.241 -127.95 L 499.241 -122.95 L 516.241 -113.95 L 527.241 -105.95 L 541.241 -93.951 L 550.241 -83.951 L 562.241 -66.951 L 571.241 -49.951 L 580.241 -22.951 L 582.241 -10.951 L 583.241 5.049 L 583.241 185.049 L 686.241 185.049 L 686.241 -263.95 L 689.241 -273.95 L 696.241 -284.95 L 704.241 -290.95 L 713.241 -294.95 L 731.241 -294.95 L 740.241 -290.95 L 748.241 -284.95 L 754.241 -276.95 L 758.241 -265.95 L 758.241 227.049 L 756.241 235.049 L 749.241 246.049 L 740.241 253.049 L 733.241 256.049 L 724.241 257.049 L 583.241 257.049 L 583.241 606.049 L 581.241 625.049 L 574.241 650.049 L 566.241 667.049 L 557.241 682.049 L 549.241 692.049 L 540.241 702.049 L 529.241 712.049 L 516.241 721.049 L 495.241 732.049 L 474.241 739.049 L 458.241 743.049 L -338.76 743.049 L -366.76 735.049 L -381.76 729.049 L -399.76 719.049 L -410.76 710.049 L -420.76 701.049 L -427.76 694.049 L -438.76 680.049 L -448.76 662.049 L -453.76 651.049 L -460.76 628.049 L -462.76 615.049 L -463.76 603.049 L -463.76 6.049 L -461.76 -14.951 L -457.76 -30.951 L -451.76 -48.951 L -441.76 -67.951 L -431.76 -81.951 L -417.76 -96.951 L -407.76 -105.95 L -394.76 -114.95 L -377.76 -123.95 L -363.76 -128.95 L -361.76 -128.95 L -365.76 -143.95 L -367.76 -155.95 L -367.76 -176.95 L -363.76 -196.95 L -357.76 -212.95 L -348.76 -228.95 L -335.76 -244.95 L -326.76 -252.95 L -313.76 -261.95 L -297.76 -269.95 L -294.76 -270.95 L -293.76 -584.95 L -290.76 -594.95 L -284.76 -604.95 L -276.76 -611.95 L -267.76 -615.95 L -261.76 -616.95 Z M -132.76 -54.951 L -323.76 -53.951 L -337.76 -50.951 L -347.76 -46.951 L -358.76 -38.951 L -368.76 -28.951 L -374.76 -18.951 L -379.76 -4.951 L -380.76 0.049 L -380.76 607.049 L -377.76 619.049 L -370.76 633.049 L -363.76 642.049 L -355.76 649.049 L -346.76 654.049 L -334.76 659.049 L -326.76 661.049 L -194.76 662.049 L 250.241 662.049 L 445.241 661.049 L 461.241 657.049 L 474.241 650.049 L 484.241 641.049 L 490.241 634.049 L 497.241 620.049 L 500.241 609.049 L 500.241 -1.951 L 495.241 -17.951 L 489.241 -27.951 L 480.241 -37.951 L 471.241 -44.951 L 458.241 -50.951 L 444.241 -53.951 L 290.241 -54.951 L -132.76 -54.951 Z"
              fill="#001132"></path>
        <path d="M -171.76 63.049 L 298.241 63.049 L 315.241 65.049 L 328.241 69.049 L 342.241 76.049 L 355.241 86.049 L 364.241 95.049 L 373.241 109.049 L 379.241 122.049 L 383.241 137.049 L 383.241 467.049 L 379.241 482.049 L 374.241 494.049 L 365.241 508.049 L 355.241 519.049 L 343.241 528.049 L 326.241 536.049 L 312.241 540.049 L 302.241 541.049 L -178.76 541.049 L -189.76 539.049 L -203.76 534.049 L -216.76 527.049 L -226.76 519.049 L -235.76 510.049 L -242.76 500.049 L -250.76 484.049 L -254.76 471.049 L -256.76 453.049 L -256.76 153.049 L -254.76 134.049 L -249.76 118.049 L -243.76 106.049 L -234.76 94.049 L -228.76 87.049 L -215.76 77.049 L -200.76 69.049 L -187.76 65.049 L -171.76 63.049 Z M -162.76 134.049 L -174.76 136.049 L -181.76 142.049 L -183.76 146.049 L -184.76 153.049 L -184.76 454.049 L -182.76 461.049 L -174.76 468.049 L -172.76 469.049 L 301.241 469.049 L 307.241 465.049 L 311.241 459.049 L 312.241 454.049 L 312.241 148.049 L 309.241 142.049 L 304.241 137.049 L 299.241 135.049 L 292.241 134.049 L -162.76 134.049 Z"
              fill="#001132"></path>
        <path d="M -739.76 -103.95 L -714.76 -103.95 L -696.76 -101.95 L -675.76 -96.951 L -656.76 -89.951 L -640.76 -81.951 L -627.76 -73.951 L -611.76 -61.951 L -596.76 -47.951 L -596.76 -45.951 L -594.76 -45.951 L -585.76 -34.951 L -574.76 -18.951 L -562.76 4.049 L -555.76 23.049 L -550.76 44.049 L -548.76 57.049 L -547.76 71.049 L -547.76 82.049 L -549.76 103.049 L -554.76 127.049 L -561.76 147.049 L -571.76 167.049 L -580.76 181.049 L -590.76 194.049 L -602.76 207.049 L -612.76 216.049 L -627.76 227.049 L -642.76 236.049 L -659.76 244.049 L -680.76 251.049 L -698.76 255.049 L -713.76 257.049 L -741.76 257.049 L -767.76 253.049 L -787.76 247.049 L -808.76 238.049 L -825.76 228.049 L -841.76 216.049 L -857.76 201.049 L -866.76 191.049 L -878.76 174.049 L -888.76 156.049 L -896.76 137.049 L -902.76 115.049 L -906.76 93.049 L -906.76 60.049 L -900.76 29.049 L -893.76 8.049 L -885.76 -8.951 L -874.76 -26.951 L -864.76 -39.951 L -848.76 -56.951 L -840.76 -63.951 L -822.76 -76.951 L -806.76 -85.951 L -788.76 -93.951 L -763.76 -100.95 L -739.76 -103.95 Z M -738.76 -58.951 L -757.76 -55.951 L -773.76 -50.951 L -789.76 -43.951 L -805.76 -33.951 L -820.76 -20.951 L -832.76 -7.951 L -842.76 7.049 L -850.76 23.049 L -856.76 39.049 L -859.76 51.049 L -861.76 70.049 L -861.76 84.049 L -859.76 101.049 L -854.76 121.049 L -846.76 139.049 L -839.76 151.049 L -830.76 163.049 L -819.76 175.049 L -809.76 184.049 L -792.76 195.049 L -773.76 204.049 L -757.76 209.049 L -737.76 212.049 L -716.76 212.049 L -697.76 209.049 L -680.76 204.049 L -661.76 195.049 L -646.76 185.049 L -633.76 174.049 L -625.76 166.049 L -614.76 151.049 L -606.76 137.049 L -600.76 122.049 L -596.76 109.049 L -593.76 92.049 L -593.76 61.049 L -596.76 44.049 L -601.76 28.049 L -612.76 5.049 L -622.76 -8.951 L -633.76 -20.951 L -644.76 -30.951 L -659.76 -40.951 L -675.76 -48.951 L -692.76 -54.951 L -706.76 -57.951 L -714.76 -58.951 L -738.76 -58.951 Z"
              fill="#f3e9d4"></path>
        <path d="M -732.76 -510.95 L -721.76 -510.95 L -700.76 -508.95 L -680.76 -504.95 L -659.76 -497.95 L -640.76 -488.95 L -623.76 -477.95 L -609.76 -466.95 L -595.76 -453.95 L -586.76 -442.95 L -575.76 -427.95 L -562.76 -403.95 L -554.76 -381.95 L -550.76 -363.95 L -548.76 -350.95 L -547.76 -337.95 L -547.76 -325.95 L -549.76 -304.95 L -554.76 -280.95 L -561.76 -260.95 L -573.76 -237.95 L -584.76 -221.95 L -595.76 -208.95 L -609.76 -194.95 L -625.76 -182.95 L -640.76 -173.95 L -661.76 -163.95 L -679.76 -157.95 L -699.76 -153.95 L -716.76 -151.95 L -739.76 -151.95 L -763.76 -154.95 L -787.76 -161.95 L -808.76 -170.95 L -822.76 -178.95 L -836.76 -188.95 L -849.76 -199.95 L -862.76 -212.95 L -875.76 -229.95 L -884.76 -244.95 L -892.76 -260.95 L -898.76 -276.95 L -904.76 -302.95 L -906.76 -314.95 L -906.76 -347.95 L -900.76 -378.95 L -893.76 -398.95 L -884.76 -417.95 L -874.76 -433.95 L -863.76 -447.95 L -851.76 -460.95 L -841.76 -469.95 L -826.76 -480.95 L -809.76 -490.95 L -792.76 -498.95 L -774.76 -504.95 L -754.76 -508.95 L -732.76 -510.95 Z M -743.76 -464.95 L -763.76 -460.95 L -780.76 -454.95 L -797.76 -445.95 L -811.76 -435.95 L -826.76 -421.95 L -837.76 -407.95 L -847.76 -390.95 L -853.76 -376.95 L -857.76 -363.95 L -860.76 -348.95 L -861.76 -337.95 L -861.76 -323.95 L -859.76 -306.95 L -854.76 -287.95 L -846.76 -268.95 L -836.76 -252.95 L -828.76 -242.95 L -813.76 -227.95 L -799.76 -217.95 L -778.76 -206.95 L -764.76 -201.95 L -751.76 -198.95 L -730.76 -196.95 L -708.76 -197.95 L -689.76 -201.95 L -673.76 -207.95 L -656.76 -216.95 L -642.76 -226.95 L -632.76 -235.95 L -624.76 -243.95 L -616.76 -254.95 L -608.76 -267.95 L -601.76 -282.95 L -596.76 -298.95 L -593.76 -315.95 L -593.76 -345.95 L -596.76 -363.95 L -602.76 -381.95 L -610.76 -397.95 L -619.76 -411.95 L -630.76 -424.95 L -643.76 -436.95 L -658.76 -446.95 L -674.76 -454.95 L -690.76 -460.95 L -704.76 -463.95 L -711.76 -464.95 L -743.76 -464.95 Z"
              fill="#f3e9d4"></path>
        <path d="M -739.76 305.049 L -714.76 305.049 L -692.76 308.049 L -671.76 313.049 L -656.76 319.049 L -640.76 327.049 L -628.76 334.049 L -612.76 346.049 L -599.76 358.049 L -592.76 365.049 L -579.76 382.049 L -569.76 398.049 L -559.76 419.049 L -553.76 438.049 L -549.76 458.049 L -547.76 478.049 L -547.76 490.049 L -549.76 511.049 L -553.76 531.049 L -560.76 552.049 L -568.76 568.049 L -577.76 584.049 L -589.76 600.049 L -603.76 615.049 L -616.76 626.049 L -629.76 635.049 L -645.76 644.049 L -662.76 652.049 L -681.76 658.049 L -702.76 662.049 L -724.76 664.049 L -744.76 663.049 L -765.76 660.049 L -786.76 654.049 L -805.76 646.049 L -823.76 636.049 L -837.76 626.049 L -848.76 616.049 L -856.76 609.049 L -865.76 599.049 L -876.76 584.049 L -884.76 571.049 L -894.76 550.049 L -900.76 531.049 L -906.76 501.049 L -906.76 468.049 L -900.76 437.049 L -893.76 416.049 L -883.76 396.049 L -872.76 379.049 L -859.76 363.049 L -844.76 348.049 L -825.76 334.049 L -808.76 324.049 L -793.76 317.049 L -775.76 311.049 L -750.76 306.049 L -739.76 305.049 Z M -737.76 350.049 L -757.76 353.049 L -773.76 358.049 L -785.76 363.049 L -799.76 371.049 L -810.76 379.049 L -822.76 390.049 L -829.76 397.049 L -841.76 414.049 L -851.76 433.049 L -856.76 448.049 L -860.76 466.049 L -861.76 477.049 L -861.76 492.049 L -858.76 514.049 L -853.76 531.049 L -843.76 552.049 L -834.76 565.049 L -825.76 576.049 L -815.76 586.049 L -800.76 597.049 L -784.76 606.049 L -763.76 614.049 L -749.76 617.049 L -741.76 618.049 L -711.76 618.049 L -691.76 614.049 L -676.76 609.049 L -655.76 598.049 L -641.76 588.049 L -628.76 576.049 L -618.76 564.049 L -610.76 551.049 L -602.76 535.049 L -596.76 517.049 L -593.76 500.049 L -593.76 470.049 L -596.76 452.049 L -603.76 431.049 L -613.76 412.049 L -622.76 400.049 L -631.76 390.049 L -639.76 382.049 L -654.76 371.049 L -668.76 363.049 L -682.76 357.049 L -701.76 352.049 L -715.76 350.049 L -737.76 350.049 Z"
              fill="#f3e9d4"></path>
        <path d="M 699.241 -634.95 L 747.241 -634.95 L 787.241 -629.95 L 819.241 -622.95 L 855.241 -610.95 L 881.241 -599.95 L 903.241 -587.95 L 917.241 -579.95 L 933.241 -568.95 L 949.241 -556.95 L 964.241 -543.95 L 974.241 -534.95 L 993.241 -515.95 L 1000.24 -505.95 L 1004.24 -494.95 L 1004.24 -483.95 L 1000.24 -472.95 L 994.241 -464.95 L 986.241 -457.95 L 975.241 -453.95 L 961.241 -453.95 L 950.241 -457.95 L 940.241 -465.95 L 925.241 -481.95 L 914.241 -491.95 L 903.241 -500.95 L 886.241 -512.95 L 872.241 -521.95 L 850.241 -533.95 L 824.241 -544.95 L 796.241 -553.95 L 765.241 -559.95 L 737.241 -562.95 L 710.241 -562.95 L 679.241 -559.95 L 653.241 -554.95 L 629.241 -547.95 L 601.241 -536.95 L 579.241 -525.95 L 560.241 -513.95 L 541.241 -499.95 L 528.241 -488.95 L 521.241 -481.95 L 513.241 -474.95 L 503.241 -465.95 L 493.241 -460.95 L 484.241 -458.95 L 473.241 -459.95 L 463.241 -463.95 L 453.241 -472.95 L 447.241 -484.95 L 446.241 -488.95 L 446.241 -500.95 L 449.241 -510.95 L 457.241 -521.95 L 465.241 -529.95 L 467.241 -529.95 L 469.241 -533.95 L 477.241 -540.95 L 488.241 -550.95 L 501.241 -560.95 L 517.241 -572.95 L 535.241 -583.95 L 545.241 -589.95 L 562.241 -598.95 L 587.241 -609.95 L 612.241 -618.95 L 642.241 -626.95 L 671.241 -631.95 L 699.241 -634.95 Z"
              fill="#001132"></path>
        <path d="M 197.241 196.049 L 206.241 196.049 L 217.241 199.049 L 225.241 205.049 L 232.241 213.049 L 237.241 225.049 L 237.241 238.049 L 233.241 249.049 L 224.241 261.049 L 209.241 276.049 L 202.241 284.049 L 194.241 292.049 L 187.241 300.049 L 177.241 310.049 L 176.241 312.049 L 174.241 312.049 L 172.241 316.049 L 159.241 329.049 L 152.241 337.049 L 141.241 348.049 L 134.241 356.049 L 126.241 364.049 L 119.241 372.049 L 109.241 382.049 L 102.241 390.049 L 94.241 399.049 L 84.241 405.049 L 73.241 408.049 L 62.241 407.049 L 54.241 404.049 L 43.241 397.049 L 13.241 374.049 L 0.241 364.049 L -20.759 348.049 L -31.759 340.049 L -38.759 346.049 L -47.759 357.049 L -62.759 373.049 L -69.759 381.049 L -87.759 401.049 L -95.759 407.049 L -105.76 411.049 L -116.76 412.049 L -126.76 410.049 L -136.76 404.049 L -144.76 395.049 L -148.76 386.049 L -149.76 382.049 L -149.76 369.049 L -145.76 359.049 L -137.76 348.049 L -130.76 341.049 L -123.76 333.049 L -105.76 313.049 L -98.759 305.049 L -86.759 292.049 L -77.759 281.049 L -70.759 274.049 L -63.759 266.049 L -55.759 259.049 L -43.759 254.049 L -30.759 254.049 L -19.759 258.049 L -8.759 266.049 L 9.241 280.049 L 25.241 292.049 L 38.241 302.049 L 54.241 314.049 L 64.241 322.049 L 67.241 322.049 L 74.241 314.049 L 88.241 299.049 L 97.241 290.049 L 104.241 282.049 L 114.241 272.049 L 115.241 270.049 L 117.241 270.049 L 119.241 266.049 L 130.241 255.049 L 137.241 247.049 L 144.241 240.049 L 145.241 238.049 L 147.241 238.049 L 149.241 234.049 L 162.241 221.049 L 164.241 218.049 L 166.241 218.049 L 168.241 214.049 L 179.241 203.049 L 191.241 197.049 L 197.241 196.049 Z"
              fill="#001132"></path>
        <path d="M 705.241 -456.95 L 738.241 -456.95 L 756.241 -454.95 L 781.241 -448.95 L 796.241 -443.95 L 812.241 -436.95 L 828.241 -427.95 L 845.241 -415.95 L 860.241 -402.95 L 872.241 -390.95 L 878.241 -381.95 L 881.241 -372.95 L 881.241 -359.95 L 877.241 -349.95 L 871.241 -340.95 L 861.241 -333.95 L 852.241 -330.95 L 837.241 -330.95 L 827.241 -334.95 L 817.241 -343.95 L 813.241 -346.95 L 813.241 -348.95 L 809.241 -350.95 L 800.241 -358.95 L 785.241 -368.95 L 768.241 -376.95 L 751.241 -381.95 L 731.241 -384.95 L 715.241 -384.95 L 694.241 -381.95 L 674.241 -375.95 L 658.241 -367.95 L 641.241 -355.95 L 628.241 -343.95 L 618.241 -336.95 L 610.241 -333.95 L 594.241 -333.95 L 584.241 -337.95 L 577.241 -342.95 L 570.241 -352.95 L 567.241 -359.95 L 566.241 -364.95 L 566.241 -373.95 L 569.241 -383.95 L 575.241 -392.95 L 592.241 -409.95 L 605.241 -419.95 L 622.241 -430.95 L 639.241 -439.95 L 663.241 -448.95 L 683.241 -453.95 L 705.241 -456.95 Z"
              fill="#001132"></path>
        <path d="M -738.76 -8.951 L -729.76 -3.951 L -719.76 5.049 L -712.76 14.049 L -707.76 25.049 L -704.76 37.049 L -704.76 49.049 L -708.76 62.049 L -714.76 72.049 L -716.76 78.049 L -716.76 85.049 L -713.76 93.049 L -709.76 97.049 L -702.76 100.049 L -692.76 100.049 L -684.76 95.049 L -680.76 89.049 L -679.76 80.049 L -674.76 85.049 L -672.76 95.049 L -672.76 110.049 L -677.76 125.049 L -684.76 137.049 L -689.76 143.049 L -701.76 152.049 L -713.76 157.049 L -723.76 159.049 L -729.76 159.049 L -732.76 150.049 L -739.76 136.049 L -748.76 123.049 L -752.76 113.049 L -754.76 97.049 L -753.76 88.049 L -758.76 93.049 L -766.76 109.049 L -768.76 118.049 L -768.76 131.049 L -764.76 147.049 L -768.76 146.049 L -776.76 137.049 L -782.76 127.049 L -787.76 110.049 L -787.76 94.049 L -784.76 82.049 L -778.76 71.049 L -766.76 58.049 L -753.76 46.049 L -745.76 37.049 L -738.76 23.049 L -736.76 16.049 L -736.76 1.049 L -739.76 -7.951 L -738.76 -8.951 Z"
              fill="#001132"></path>
        <path d="M -730.76 394.049 L -727.76 395.049 L -720.76 406.049 L -706.76 427.049 L -695.76 445.049 L -681.76 472.049 L -674.76 490.049 L -671.76 505.049 L -672.76 520.049 L -677.76 533.049 L -683.76 543.049 L -693.76 553.049 L -703.76 559.049 L -713.76 563.049 L -722.76 565.049 L -739.76 565.049 L -755.76 560.049 L -766.76 553.049 L -776.76 543.049 L -784.76 529.049 L -787.76 519.049 L -788.76 511.049 L -788.76 502.049 L -784.76 487.049 L -775.76 466.049 L -764.76 445.049 L -749.76 421.049 L -739.76 406.049 L -730.76 394.049 Z M -730.76 432.049 L -740.76 448.049 L -754.76 473.049 L -763.76 494.049 L -765.76 501.049 L -765.76 516.049 L -761.76 526.049 L -752.76 536.049 L -741.76 542.049 L -737.76 543.049 L -723.76 543.049 L -711.76 539.049 L -701.76 530.049 L -696.76 522.049 L -694.76 516.049 L -694.76 501.049 L -699.76 486.049 L -710.76 463.049 L -727.76 435.049 L -730.76 432.049 Z"
              fill="#041535"></path>
        <path d="M -752.76 -411.95 L -703.76 -411.95 L -704.76 -406.95 L -722.76 -351.95 L -722.76 -348.95 L -691.76 -348.95 L -691.76 -345.95 L -698.76 -336.95 L -707.76 -323.95 L -735.76 -283.95 L -744.76 -270.95 L -754.76 -256.95 L -756.76 -255.95 L -754.76 -264.95 L -737.76 -320.95 L -735.76 -324.95 L -768.76 -324.95 L -769.76 -327.95 L -760.76 -373.95 L -753.76 -410.95 L -752.76 -411.95 Z"
              fill="#051535"></path>
    </g>
</svg>