<svg xmlns="http://www.w3.org/2000/svg" viewBox="0 0 75.158 80.507" fill="#001132">
    <path d="M 12.709 37.673 L 13.808 37.673 L 15.242 37.864 L 16.962 38.342 L 17.774 38.629 L 18.491 38.963 L 19.208 39.346 L 20.354 40.062 L 21.166 40.683 L 21.788 41.209 L 22.361 41.735 L 22.695 42.069 L 23.03 42.451 L 23.508 43.072 L 23.938 43.789 L 24.416 44.649 L 24.941 45.748 L 25.371 47.086 L 25.753 48.902 L 25.849 49.475 L 25.897 50.144 L 25.897 51.386 L 25.801 52.342 L 25.467 54.014 L 25.084 55.304 L 24.511 56.642 L 23.89 58.123 L 23.317 59.365 L 22.695 60.655 L 22.313 61.516 L 21.597 63.092 L 20.975 64.478 L 20.402 65.72 L 19.638 67.345 L 18.921 68.921 L 18.395 70.02 L 17.965 70.976 L 17.392 72.266 L 16.15 74.942 L 15.576 76.088 L 14.955 77.426 L 14.334 78.716 L 13.952 79.385 L 13.713 79.624 L 13.378 79.72 L 12.518 79.72 L 12.041 79.576 L 11.802 79.337 L 11.563 78.86 L 11.133 77.617 L 10.607 76.566 L 10.082 75.467 L 9.556 74.321 L 8.839 72.983 L 8.505 72.314 L 8.17 71.549 L 7.215 69.734 L 6.737 68.587 L 6.116 67.249 L 5.351 65.481 L 4.778 64.287 L 4.252 63.188 L 3.822 62.232 L 3.201 60.99 L 2.771 59.891 L 2.246 58.553 L 1.577 57.072 L 1.003 55.591 L 0.669 54.826 L 0.287 53.68 L 0.096 52.724 L 0 51.625 L 0 49.953 L 0.096 48.902 L 0.334 47.707 L 0.621 46.704 L 1.147 45.366 L 1.72 44.219 L 2.102 43.55 L 2.628 42.786 L 3.249 42.021 L 3.775 41.448 L 4.539 40.683 L 5.16 40.206 L 5.829 39.728 L 7.071 39.011 L 8.361 38.486 L 9.174 38.247 L 10.942 37.864 L 12.709 37.673 Z M 12.088 45.223 L 11.324 45.366 L 10.464 45.653 L 9.938 45.939 L 9.269 46.465 L 8.791 46.99 L 8.314 47.659 L 7.788 48.663 L 7.549 49.332 L 7.406 49.953 L 7.358 50.335 L 7.358 51.147 L 7.501 51.912 L 7.836 52.82 L 8.266 53.632 L 8.744 54.349 L 9.174 54.826 L 9.508 55.161 L 10.177 55.543 L 10.846 55.83 L 12.088 56.164 L 12.662 56.26 L 13.522 56.26 L 14.286 56.116 L 15.003 55.877 L 15.72 55.495 L 16.388 55.017 L 17.105 54.301 L 17.583 53.68 L 17.965 53.011 L 18.204 52.294 L 18.395 51.291 L 18.443 50.813 L 18.443 50.192 L 18.347 49.427 L 18.156 48.854 L 17.774 48.089 L 17.344 47.468 L 16.914 46.943 L 16.341 46.417 L 15.672 45.939 L 14.907 45.557 L 14.286 45.366 L 13.187 45.223 L 12.088 45.223 Z"></path>
    <path d="M 64.216 0.548 L 65.984 0.548 L 67.179 0.74 L 68.182 1.026 L 69.09 1.408 L 69.854 1.791 L 70.715 2.316 L 71.479 2.89 L 72.052 3.415 L 72.721 4.084 L 73.342 4.896 L 73.964 6.043 L 74.489 7.094 L 74.871 8.098 L 75.062 9.005 L 75.158 9.913 L 75.158 11.92 L 75.062 12.876 L 74.776 14.07 L 74.298 15.36 L 73.725 16.65 L 73.295 17.606 L 72.53 19.278 L 72.005 20.568 L 71.336 22.049 L 70.953 22.814 L 70.332 24.104 L 69.902 25.06 L 69.377 26.206 L 68.66 27.783 L 68.23 28.739 L 67.704 29.885 L 67.227 30.793 L 66.51 32.37 L 65.841 33.946 L 65.506 34.233 L 64.885 34.424 L 64.503 34.376 L 64.216 34.233 L 63.93 33.899 L 63.309 32.513 L 62.401 30.65 L 61.875 29.551 L 61.206 28.165 L 60.681 26.971 L 59.916 25.298 L 59.247 23.722 L 58.483 22.049 L 58.053 21.142 L 57.527 20.043 L 57.145 19.278 L 56.715 18.37 L 56.094 17.032 L 55.52 15.79 L 55.09 14.691 L 54.708 13.497 L 54.517 12.685 L 54.422 12.063 L 54.422 11.012 L 54.613 9.435 L 54.852 8.193 L 55.043 7.429 L 55.425 6.473 L 55.807 5.709 L 56.285 4.944 L 57.241 3.75 L 57.718 3.224 L 57.957 2.985 L 58.435 2.555 L 59.056 2.125 L 59.916 1.647 L 60.585 1.361 L 61.493 1.026 L 62.687 0.74 L 63.691 0.596 L 64.216 0.548 Z M 64.742 6.569 L 63.739 6.712 L 62.974 6.999 L 62.257 7.429 L 61.684 7.907 L 61.159 8.575 L 60.776 9.34 L 60.585 10.009 L 60.537 10.296 L 60.537 11.442 L 60.728 12.35 L 60.92 12.923 L 61.254 13.545 L 61.78 14.213 L 62.162 14.596 L 62.831 15.074 L 63.404 15.36 L 64.073 15.551 L 64.885 15.599 L 65.65 15.504 L 66.271 15.312 L 67.035 14.93 L 67.657 14.5 L 68.373 13.783 L 68.708 13.258 L 68.994 12.637 L 69.186 11.824 L 69.233 11.538 L 69.233 10.248 L 69.042 9.531 L 68.756 8.91 L 68.373 8.289 L 67.848 7.715 L 67.274 7.238 L 66.558 6.855 L 65.937 6.664 L 65.172 6.569 L 64.742 6.569 Z"></path>
    <path d="M 31.439 73.652 L 37.46 73.699 L 37.507 73.843 L 37.555 76.948 L 37.651 79.337 L 37.651 79.815 L 37.364 79.911 L 35.883 79.959 L 32.156 79.959 L 31.583 79.911 L 31.344 79.815 L 31.296 79.72 L 31.296 77.57 L 31.344 73.699 L 31.439 73.652 Z"></path>
    <path d="M 21.214 73.604 L 27.187 73.699 L 27.235 78.573 L 27.235 79.863 L 26.948 79.959 L 21.262 79.959 L 21.071 79.863 L 21.023 79.672 L 21.023 77.856 L 21.071 74.942 L 21.119 73.699 L 21.214 73.604 Z"></path>
    <path d="M 55.726 52.772 L 62.21 54.97 L 59.343 60.464 L 58.865 60.321 L 58.292 60.082 L 57.097 59.557 L 55.377 58.792 L 54.374 58.314 L 54.008 58.148 L 55.726 52.772 Z"></path>
    <path d="M 45.869 50.048 L 46.251 50.096 L 49.691 51.004 L 51.459 51.482 L 51.841 51.673 L 51.985 51.816 L 51.937 52.151 L 50.647 57.12 L 50.504 57.359 L 49.596 57.168 L 47.876 56.738 L 46.49 56.403 L 44.818 55.925 L 44.483 55.734 L 44.388 55.495 L 45.009 53.441 L 45.678 50.669 L 45.821 50.096 L 45.869 50.048 Z"></path>
    <path d="M 46.586 73.222 L 47.302 73.222 L 47.446 73.269 L 47.493 73.413 L 47.685 78 L 47.732 78.716 L 47.732 79.242 L 47.685 79.29 L 47.255 79.337 L 43.193 79.529 L 41.616 79.529 L 41.521 79.385 L 41.473 78.525 L 41.473 73.604 L 41.521 73.461 L 41.664 73.413 L 43.814 73.317 L 46.586 73.222 Z"></path>
    <path d="M 46.872 32.37 L 47.111 32.37 L 47.255 32.704 L 48.019 36.335 L 48.353 37.817 L 48.353 38.199 L 48.162 38.342 L 43.384 39.776 L 42.954 39.823 L 42.763 39.346 L 42.333 38.056 L 41.76 36.861 L 41.234 35.905 L 40.756 35.093 L 40.565 34.663 L 41.043 34.376 L 41.999 33.946 L 43.145 33.516 L 44.866 32.943 L 46.394 32.465 L 46.872 32.37 Z"></path>
    <path d="M 63.361 68.182 L 68.73 70.357 L 68.849 70.494 L 68.893 70.712 L 68.469 71.454 L 67.943 72.075 L 67.083 73.031 L 66.51 73.556 L 66.08 73.891 L 65.22 74.512 L 64.073 75.276 L 63.213 75.754 L 62.851 75.911 L 60.327 70.376 L 60.681 70.164 L 61.636 69.638 L 62.21 69.256 L 62.726 68.862 L 63.066 68.508 L 63.361 68.182 Z"></path>
    <path d="M 57.145 30.602 L 57.527 30.602 L 57.623 30.698 L 57.718 32.083 L 57.957 36.144 L 57.957 36.67 L 57.623 36.813 L 56.046 36.957 L 54.087 37.148 L 52.367 37.339 L 52.224 37.196 L 52.128 37.052 L 51.746 34.759 L 51.411 32.513 L 51.316 31.988 L 51.316 31.558 L 51.459 31.462 L 53.418 31.128 L 56.763 30.65 L 57.145 30.602 Z"></path>
    <path d="M 36.361 36.957 L 36.6 37.052 L 36.982 37.387 L 38.129 38.629 L 40.09 40.809 L 40.16 40.943 L 40.19 41.055 L 40.196 41.151 L 40.135 41.305 L 39.753 41.926 L 39.084 43.025 L 38.606 43.885 L 38.367 44.267 L 38.224 44.363 L 37.985 44.41 L 37.364 44.41 L 35.405 44.315 L 33.112 44.219 L 32.729 44.124 L 32.586 43.98 L 32.538 43.789 L 32.538 43.311 L 32.681 42.451 L 33.016 41.448 L 33.589 40.349 L 34.354 39.154 L 34.927 38.342 L 35.357 37.817 L 35.787 37.339 L 36.026 37.1 L 36.361 36.957 Z"></path>
    <path d="M 38.367 46.608 L 38.606 46.608 L 41.951 48.567 L 42.303 48.835 L 42.493 49.08 L 42.477 49.379 L 40.852 53.393 L 40.518 54.014 L 40.279 54.157 L 39.849 54.11 L 39.371 53.966 L 38.463 53.584 L 37.316 52.963 L 36.743 52.581 L 35.931 51.96 L 35.31 51.386 L 34.688 50.765 L 34.466 50.533 L 34.315 50.276 L 34.356 49.959 L 34.597 49.628 L 38.176 46.704 L 38.367 46.608 Z"></path>
    <path d="M 56.476 71.502 L 56.763 71.502 L 56.906 71.836 L 57.479 73.891 L 58.244 77.044 L 58.292 77.426 L 58.005 77.57 L 56.476 77.904 L 54.183 78.286 L 52.51 78.525 L 52.128 78.525 L 51.985 78.382 L 51.937 78.239 L 51.698 75.85 L 51.459 73.795 L 51.364 73.078 L 51.364 72.744 L 51.746 72.601 L 54.23 72.123 L 56.476 71.502 Z"></path>
    <path d="M 65.931 58.19 L 66.175 58.314 L 66.558 58.601 L 67.227 59.27 L 67.895 60.273 L 68.278 60.942 L 68.66 61.85 L 69.042 63.044 L 69.329 64.382 L 69.378 64.808 L 69.377 65.195 L 63.93 65.911 L 63.786 65.672 L 62.353 62.997 L 61.934 62.213 L 65.931 58.19 Z"></path>
</svg>