<svg xmlns="http://www.w3.org/2000/svg" fill="#001132"
     viewBox="0 0 75.158 80.507"
     xmlns:xlink="http://www.w3.org/1999/xlink" version="1.1">
    <g transform="matrix(1, 0, 0, 1, -419.374664, -184.41774)">
        <g transform="matrix(1, 0, 0, 1, -197.639297, -982.938904)">
            <path d="M673.380859375,1186.802978515625C673.380859375,1197.1798095703125,664.9697875976562,1205.591064453125,654.5929565429688,1205.591064453125C644.2161254882812,1205.591064453125,635.8051147460938,1197.1798095703125,635.8051147460938,1186.802978515625C635.8051147460938,1176.4266357421875,644.2161254882812,1168.01513671875,654.5929565429688,1168.01513671875C664.9697875976562,1168.01513671875,673.380859375,1176.4266357421875,673.380859375,1186.802978515625Z"></path>
            <path d="M692.1686401367188,1247.8636474609375L692.1686401367188,1229.0758056640625C692.1686401367188,1226.2576904296875,690.7596435546875,1223.4393310546875,688.4110107421875,1221.560546875C683.2445068359375,1217.33349609375,676.668701171875,1214.5152587890625,670.0928955078125,1212.63623046875C665.3960571289062,1211.2274169921875,660.2293701171875,1210.287841796875,654.5929565429688,1210.287841796875C649.42626953125,1210.287841796875,644.2596435546875,1211.2274169921875,639.0929565429688,1212.63623046875C632.5172729492188,1214.5152587890625,625.9413452148438,1217.8031005859375,620.7748413085938,1221.560546875C618.4263305664062,1223.4393310546875,617.0172119140625,1226.2576904296875,617.0172119140625,1229.0758056640625L617.0172119140625,1247.8636474609375L692.1686401367188,1247.8636474609375Z"></path>
        </g>
    </g>
</svg>