<svg xmlns="http://www.w3.org/2000/svg" viewBox="0 0 75.158 80.507" fill="#001132">
    <g transform="matrix(0.046365, 0, 0, 0.046365, 35.319134, 37.747486)">
        <path d="M 0.241 -756.95 L 6.241 -756.95 L 7.241 -750.95 L 7.241 -562.95 L 8.241 69.049 L 9.241 77.049 L 13.241 79.049 L 24.241 88.049 L 41.241 104.049 L 52.241 116.049 L 97.241 161.049 L 105.241 168.049 L 105.241 170.049 L 108.241 171.049 L 108.241 173.049 L 112.241 175.049 L 145.241 208.049 L 149.241 213.049 L 156.241 219.049 L 163.241 227.049 L 172.241 235.049 L 177.241 241.049 L 183.241 246.049 L 190.241 254.049 L 568.241 632.049 L 581.241 644.049 L 586.241 649.049 L 592.241 654.049 L 587.241 659.049 L 576.241 669.049 L 565.241 678.049 L 553.241 688.049 L 539.241 699.049 L 531.241 706.049 L 497.241 729.049 L 483.241 739.049 L 464.241 751.049 L 442.241 763.049 L 418.241 776.049 L 399.241 786.049 L 364.241 802.049 L 336.241 813.049 L 298.241 826.049 L 262.241 836.049 L 228.241 844.049 L 192.241 851.049 L 161.241 856.049 L 119.241 861.049 L 80.241 864.049 L 62.241 865.049 L 35.241 865.049 L -15.759 862.049 L -51.759 858.049 L -95.759 852.049 L -124.76 846.049 L -168.76 835.049 L -204.76 824.049 L -248.76 808.049 L -285.76 792.049 L -318.76 776.049 L -337.76 766.049 L -366.76 750.049 L -377.76 743.049 L -402.76 727.049 L -416.76 717.049 L -432.76 705.049 L -458.76 685.049 L -469.76 676.049 L -480.76 666.049 L -488.76 659.049 L -498.76 650.049 L -506.76 643.049 L -516.76 633.049 L -524.76 626.049 L -553.76 595.049 L -564.76 583.049 L -573.76 572.049 L -586.76 556.049 L -596.76 543.049 L -610.76 524.049 L -620.76 510.049 L -630.76 494.049 L -643.76 474.049 L -657.76 450.049 L -669.76 427.049 L -679.76 408.049 L -694.76 375.049 L -705.76 348.049 L -715.76 321.049 L -726.76 288.049 L -738.76 243.049 L -744.76 217.049 L -751.76 174.049 L -756.76 137.049 L -759.76 104.049 L -760.76 87.049 L -761.76 53.049 L -760.76 24.049 L -756.76 -25.951 L -750.76 -70.951 L -745.76 -100.95 L -739.76 -128.95 L -729.76 -168.95 L -719.76 -200.95 L -710.76 -225.95 L -699.76 -253.95 L -690.76 -274.95 L -679.76 -298.95 L -659.76 -336.95 L -646.76 -358.95 L -636.76 -375.95 L -624.76 -394.95 L -615.76 -406.95 L -602.76 -424.95 L -588.76 -443.95 L -579.76 -454.95 L -568.76 -467.95 L -562.76 -474.95 L -553.76 -485.95 L -541.76 -498.95 L -534.76 -506.95 L -506.76 -534.95 L -498.76 -541.95 L -491.76 -548.95 L -483.76 -555.95 L -472.76 -565.95 L -458.76 -576.95 L -442.76 -589.95 L -424.76 -602.95 L -409.76 -613.95 L -386.76 -628.95 L -362.76 -643.95 L -347.76 -652.95 L -329.76 -662.95 L -284.76 -685.95 L -258.76 -696.95 L -232.76 -706.95 L -210.76 -714.95 L -156.76 -730.95 L -122.76 -738.95 L -79.759 -746.95 L -34.759 -752.95 L 0.241 -756.95 Z"></path>
        <path d="M 93.241 -755.95 L 105.241 -755.95 L 176.241 -746.95 L 205.241 -741.95 L 239.241 -734.95 L 270.241 -726.95 L 309.241 -714.95 L 352.241 -698.95 L 389.241 -682.95 L 428.241 -663.95 L 447.241 -653.95 L 482.241 -632.95 L 507.241 -616.95 L 525.241 -603.95 L 546.241 -587.95 L 563.241 -574.95 L 573.241 -565.95 L 584.241 -556.95 L 600.241 -541.95 L 617.241 -525.95 L 637.241 -505.95 L 644.241 -497.95 L 651.241 -490.95 L 658.241 -482.95 L 669.241 -469.95 L 681.241 -454.95 L 696.241 -434.95 L 707.241 -420.95 L 720.241 -402.95 L 732.241 -383.95 L 745.241 -362.95 L 758.241 -339.95 L 773.241 -311.95 L 788.241 -279.95 L 803.241 -243.95 L 813.241 -216.95 L 825.241 -179.95 L 836.241 -138.95 L 844.241 -101.95 L 850.241 -66.951 L 858.241 -2.951 L 858.241 10.049 L 853.241 11.049 L 786.241 12.049 L 93.241 12.049 L 92.241 11.049 L 91.241 -10.951 L 91.241 -450.95 L 92.241 -749.95 L 93.241 -755.95 Z"></path>
        <path d="M 154.241 97.049 L 809.241 97.049 L 858.241 98.049 L 859.241 99.049 L 859.241 108.049 L 851.241 174.049 L 845.241 210.049 L 836.241 252.049 L 826.241 289.049 L 814.241 325.049 L 804.241 352.049 L 792.241 380.049 L 778.241 410.049 L 765.241 436.049 L 751.241 460.049 L 741.241 477.049 L 725.241 502.049 L 712.241 521.049 L 699.241 539.049 L 687.241 554.049 L 678.241 565.049 L 669.241 575.049 L 659.241 588.049 L 652.241 596.049 L 648.241 594.049 L 626.241 570.049 L 614.241 559.049 L 435.241 380.049 L 427.241 373.049 L 418.241 364.049 L 411.241 356.049 L 320.241 265.049 L 312.241 258.049 L 290.241 236.049 L 283.241 228.049 L 251.241 196.049 L 243.241 189.049 L 214.241 160.049 L 210.241 155.049 L 202.241 148.049 L 174.241 120.049 L 166.241 113.049 L 155.241 102.049 L 154.241 97.049 Z"></path>
    </g>
</svg>