<svg xmlns="http://www.w3.org/2000/svg" fill="#001132"
     viewBox="325.646 1164.302 48.972 79.547"
     xmlns:xlink="http://www.w3.org/1999/xlink" version="1.1">
    <path d="M350.132080078125,1199.3963623046875C344.2829895019531,1199.3963623046875,339.6037902832031,1194.717041015625,339.6037902832031,1188.8677978515625C339.6037902832031,1183.0189208984375,344.2829895019531,1178.3397216796875,350.132080078125,1178.3397216796875C355.9811096191406,1178.3397216796875,360.6603698730469,1183.0189208984375,360.6603698730469,1188.8677978515625C360.6603698730469,1194.717041015625,355.9811096191406,1199.3963623046875,350.132080078125,1199.3963623046875ZM350.132080078125,1164.3017578125C342.06036376953125,1164.3017578125,334.4566345214844,1168.2791748046875,329.8943176269531,1175.0640869140625C325.33209228515625,1181.732177734375,324.3962707519531,1190.271484375,327.32073974609375,1197.87548828125L338.4339599609375,1222.4415283203125L348.02642822265625,1242.562255859375C348.3773498535156,1243.3812255859375,349.19622802734375,1243.8489990234375,350.132080078125,1243.8489990234375C351.0679016113281,1243.8489990234375,351.8868103027344,1243.3812255859375,352.23773193359375,1242.562255859375L361.8302001953125,1222.4415283203125L372.94342041015625,1197.87548828125C375.867919921875,1190.271484375,374.9320373535156,1181.732177734375,370.3698425292969,1175.0640869140625C365.80755615234375,1168.2791748046875,358.20379638671875,1164.3017578125,350.132080078125,1164.3017578125Z"/>
</svg>