<svg xmlns="http://www.w3.org/2000/svg" viewBox="0 0 75.158 80.507" fill="#001132">
    <path d="M 23.836 15.318 L 24.54 15.318 L 25.243 15.494 L 25.771 15.758 L 26.211 16.154 L 26.563 16.55 L 26.914 17.209 L 27.134 17.869 L 32.587 46.63 L 33.071 49.049 L 33.368 50.368 L 33.511 51.072 L 33.59 51.349 L 33.764 51.527 L 33.988 51.547 L 34.144 51.413 L 34.342 50.901 L 43.45 26.884 L 43.846 26.357 L 44.154 26.049 L 44.681 25.785 L 45.209 25.697 L 46.484 25.697 L 47.1 25.785 L 47.54 25.961 L 47.892 26.313 L 48.288 26.972 L 48.815 28.248 L 53.917 44.651 L 54.012 44.814 L 54.11 44.826 L 54.219 44.777 L 54.744 44.182 L 55.444 43.354 L 60.425 37.967 L 60.897 37.657 L 61.437 37.439 L 62.009 37.351 L 75.07 37.351 L 75.168 37.44 L 75.158 42.848 L 75.114 42.892 L 63.358 42.937 L 63.212 42.956 L 55.309 51.989 L 54.646 52.61 L 54.118 52.891 L 53.325 53.149 L 52.993 53.183 L 52.377 53.139 L 51.63 52.919 L 51.014 52.611 L 50.677 52.333 L 50.421 51.947 L 45.592 37.051 L 45.515 36.968 L 45.435 36.934 L 45.336 37 L 45.288 37.087 L 35.798 62.77 L 35.314 63.782 L 34.918 64.309 L 34.61 64.617 L 34.171 64.881 L 33.37 65.176 L 32.895 65.189 L 32.28 65.057 L 31.4 64.705 L 30.916 64.397 L 30.615 63.957 L 30.345 63.342 L 23.683 29.783 L 23.607 29.554 L 23.503 29.494 L 23.384 29.534 L 23.242 29.804 L 19.702 40.825 L 19.218 41.749 L 18.823 42.276 L 18.471 42.54 L 17.899 42.76 L 17.327 42.848 L 16.184 42.892 L 0.074 42.891 L 0 42.805 L 0 37.395 L 0.044 37.351 L 13.941 37.351 L 14.733 37.307 L 14.908 37.219 L 15.392 36.076 L 21.593 17.649 L 21.945 16.945 L 22.341 16.33 L 22.824 15.802 L 23.308 15.494 L 23.836 15.318 Z" style="stroke-width: 1;"></path>
</svg>