<svg xmlns="http://www.w3.org/2000/svg" viewBox="0 0 75.102 80.643">
    <path d="M 0 2.771 L 0 77.873 L 75.102 77.873 L 0 2.771 Z M 5.121 64.218 L 8.534 64.218 L 8.534 60.804 L 5.121 60.804 L 5.121 52.27 L 8.534 52.27 L 8.534 48.856 L 5.121 48.856 L 5.121 40.322 L 8.534 40.322 L 8.534 36.908 L 5.121 36.908 L 5.121 28.374 L 8.534 28.374 L 8.534 24.96 L 5.121 24.96 L 5.121 15.133 L 62.74 72.752 L 52.913 72.752 L 52.913 69.339 L 49.499 69.339 L 49.499 72.752 L 40.965 72.752 L 40.965 69.339 L 37.551 69.339 L 37.551 72.752 L 29.017 72.752 L 29.017 69.339 L 25.603 69.339 L 25.603 72.752 L 17.069 72.752 L 17.069 69.339 L 13.655 69.339 L 13.655 72.752 L 5.121 72.752 L 5.121 64.218 Z" class="MsftOfcThm_Text1_Fill_v2" style="word-spacing: 0px; text-decoration-color: initial; text-decoration-thickness: initial; color: rgb(0, 0, 0); -webkit-text-stroke-width: 0px; text-transform: none; font-variant-caps: normal; text-indent: 0px; orphans: 2; widows: 2; font-variant-ligatures: normal; letter-spacing: normal; font-style: normal; font-weight: 400; white-space: normal; text-align: start; font-size: medium; text-decoration-style: initial; fill: rgb(0, 17, 50); stroke-width: 0.392;"></path>
    <path d="M 13.644 33.405 L 13.644 61.731 L 40.387 61.731 L 13.644 33.405 Z M 18.82 46.641 L 27.891 56.249 L 18.82 56.249 L 18.82 46.641 Z" class="MsftOfcThm_Text1_Fill_v2" style="word-spacing: 0px; text-decoration-color: initial; text-decoration-thickness: initial; color: rgb(0, 0, 0); -webkit-text-stroke-width: 0px; text-transform: none; font-variant-caps: normal; text-indent: 0px; orphans: 2; widows: 2; font-variant-ligatures: normal; letter-spacing: normal; font-style: normal; font-weight: 400; white-space: normal; text-align: start; font-size: medium; text-decoration-style: initial; fill: rgb(0, 17, 50); stroke-width: 0.408;"></path>
</svg>