<svg xmlns="http://www.w3.org/2000/svg" viewBox="0 0 75.158 80.507"  fill="#001132">
    <g transform="matrix(0.044479, 0, 0, 0.044479, 34.291641, 40.057915)">
        <path d="M 29.479 -770.35 L 44.479 -770.35 L 81.479 -768.35 L 130.479 -764.35 L 167.479 -759.35 L 209.479 -751.35 L 247.479 -742.35 L 283.479 -731.35 L 321.479 -719.35 L 341.479 -711.35 L 370.479 -698.35 L 394.479 -687.35 L 410.479 -679.35 L 416.479 -675.35 L 415.479 -671.35 L 406.479 -664.35 L 389.479 -647.35 L 381.479 -640.35 L 375.479 -633.35 L 374.479 -627.35 L 379.479 -595.35 L 382.479 -560.35 L 383.479 -546.35 L 379.479 -547.35 L 357.479 -559.35 L 334.479 -571.35 L 306.479 -585.35 L 291.479 -591.35 L 250.479 -606.35 L 213.479 -618.35 L 161.479 -629.35 L 126.479 -635.35 L 93.479 -638.35 L 62.479 -640.35 L -0.521 -640.35 L -37.521 -637.35 L -90.518 -629.35 L -118.52 -623.35 L -154.52 -613.35 L -195.52 -599.35 L -223.52 -588.35 L -249.52 -576.35 L -286.52 -558.35 L -303.52 -548.35 L -320.52 -537.35 L -344.52 -521.35 L -361.52 -509.35 L -371.52 -501.35 L -387.52 -489.35 L -401.52 -477.35 L -411.52 -468.35 L -423.52 -457.35 L -431.52 -450.35 L -453.52 -428.35 L -460.52 -420.35 L -471.52 -408.35 L -480.52 -397.35 L -487.52 -389.35 L -502.52 -369.35 L -512.52 -356.35 L -519.52 -346.35 L -528.52 -332.35 L -540.52 -312.35 L -557.52 -284.35 L -576.52 -246.35 L -585.52 -226.35 L -600.52 -186.35 L -612.52 -150.35 L -622.52 -114.34 L -632.52 -61.345 L -636.52 -29.345 L -640.52 36.655 L -639.52 69.655 L -637.52 100.655 L -632.52 143.655 L -625.52 179.655 L -618.52 208.655 L -607.52 249.655 L -598.52 274.655 L -584.52 309.655 L -573.52 333.655 L -561.52 358.655 L -547.52 383.655 L -533.52 406.655 L -525.52 418.655 L -514.52 434.655 L -500.52 453.655 L -487.52 469.655 L -479.52 479.655 L -467.52 492.655 L -458.52 503.655 L -442.52 520.655 L -429.52 533.655 L -421.52 540.655 L -407.52 553.655 L -396.52 562.655 L -386.52 571.655 L -371.52 582.655 L -357.52 593.655 L -339.52 606.655 L -309.52 624.655 L -280.52 641.655 L -253.52 655.655 L -232.52 665.655 L -190.52 681.655 L -165.52 690.655 L -120.52 702.655 L -84.518 710.655 L -47.521 716.655 L -32.521 718.655 L 15.479 721.655 L 63.479 721.655 L 96.479 719.655 L 129.479 715.655 L 166.479 709.655 L 192.479 703.655 L 237.479 691.655 L 274.479 678.655 L 302.479 667.655 L 337.479 650.655 L 358.479 640.655 L 379.479 628.655 L 405.479 612.655 L 424.479 599.655 L 442.479 585.655 L 456.479 575.655 L 470.479 564.655 L 484.479 551.655 L 495.479 542.655 L 502.479 535.655 L 504.479 535.655 L 504.479 533.655 L 506.479 533.655 L 508.479 529.655 L 518.479 520.655 L 526.479 512.655 L 533.479 504.655 L 545.479 491.655 L 552.479 483.655 L 563.479 471.655 L 575.478 455.655 L 589.478 436.655 L 599.478 422.655 L 614.478 398.655 L 629.478 372.655 L 643.478 346.655 L 653.478 324.655 L 660.478 309.655 L 667.478 293.655 L 677.478 265.655 L 687.478 235.655 L 701.478 179.655 L 709.478 134.655 L 713.478 100.655 L 715.478 67.655 L 715.478 23.655 L 712.478 -20.345 L 708.478 -58.345 L 701.478 -94.345 L 689.478 -145.34 L 677.478 -182.35 L 663.478 -220.35 L 651.478 -247.35 L 632.478 -286.35 L 623.478 -305.35 L 623.478 -307.35 L 655.478 -302.35 L 691.478 -298.35 L 706.478 -298.35 L 718.478 -309.35 L 732.478 -324.35 L 743.478 -337.35 L 747.478 -338.35 L 753.478 -329.35 L 770.478 -294.35 L 779.478 -275.35 L 791.478 -246.35 L 807.478 -199.35 L 817.478 -167.35 L 822.478 -148.35 L 834.478 -80.345 L 838.478 -51.345 L 842.478 -1.345 L 843.478 16.655 L 843.478 71.655 L 841.478 111.655 L 837.478 144.655 L 831.478 185.655 L 823.478 222.655 L 809.478 276.655 L 799.478 308.655 L 782.478 353.655 L 773.478 373.655 L 757.478 407.655 L 746.478 429.655 L 730.478 455.655 L 721.478 470.655 L 710.478 489.655 L 697.478 507.655 L 683.478 525.655 L 673.478 539.655 L 664.478 551.655 L 655.478 562.655 L 641.478 577.655 L 629.478 591.655 L 614.478 607.655 L 588.478 633.655 L 580.478 640.655 L 567.478 651.655 L 554.479 663.655 L 539.479 675.655 L 528.479 683.655 L 512.479 695.655 L 495.479 708.655 L 473.479 722.655 L 447.479 738.655 L 419.479 754.655 L 367.479 780.655 L 340.479 791.655 L 311.479 802.655 L 273.479 815.655 L 236.479 825.655 L 206.479 832.655 L 168.479 839.655 L 125.479 845.655 L 88.479 848.655 L 50.479 850.655 L 17.479 850.655 L -37.521 847.655 L -56.521 845.655 L -99.52 838.655 L -125.52 834.655 L -167.52 824.655 L -203.52 813.655 L -244.52 799.655 L -268.52 790.655 L -289.52 781.655 L -305.52 773.655 L -322.52 765.655 L -341.52 755.655 L -365.52 742.655 L -383.52 731.655 L -399.52 721.655 L -413.52 712.655 L -428.52 701.655 L -440.52 692.655 L -461.52 676.655 L -470.52 669.655 L -484.52 657.655 L -496.52 646.655 L -504.52 639.655 L -517.52 627.655 L -551.52 593.655 L -558.52 585.655 L -570.52 572.655 L -579.52 561.655 L -592.52 545.655 L -613.52 517.655 L -621.52 506.655 L -632.52 490.655 L -643.52 473.655 L -660.52 445.655 L -672.52 423.655 L -696.52 375.655 L -707.52 350.655 L -717.52 323.655 L -730.52 286.655 L -741.52 246.655 L -750.52 208.655 L -755.52 181.655 L -763.52 132.655 L -765.52 110.655 L -768.52 58.655 L -768.52 26.655 L -765.52 -29.345 L -762.52 -57.345 L -753.52 -115.34 L -747.52 -143.34 L -733.52 -195.35 L -716.52 -245.35 L -704.52 -276.35 L -685.52 -316.35 L -667.52 -352.35 L -654.52 -373.35 L -646.52 -387.35 L -634.52 -406.35 L -618.52 -430.35 L -610.52 -440.35 L -589.52 -468.35 L -580.52 -479.35 L -568.52 -493.35 L -556.52 -506.35 L -547.52 -517.35 L -519.52 -545.35 L -511.52 -552.35 L -500.52 -563.35 L -492.52 -570.35 L -478.52 -582.35 L -460.52 -596.35 L -447.52 -606.35 L -431.52 -618.35 L -413.52 -631.35 L -391.52 -645.35 L -372.52 -657.35 L -351.52 -669.35 L -327.52 -682.35 L -284.52 -703.35 L -240.52 -721.35 L -199.52 -735.35 L -157.52 -746.35 L -121.52 -754.35 L -80.518 -761.35 L -43.521 -766.35 L 4.479 -769.35 L 29.479 -770.35 Z" style="stroke-width: 1; transform-origin: 69.481px 8.653px;" transform="matrix(0.999995, -0.003135, 0.003135, 0.999995, 0, 0)"></path>
        <path d="M 27.979 -471.35 L 43.979 -471.35 L 78.979 -469.35 L 108.979 -466.35 L 143.979 -460.35 L 176.979 -452.35 L 198.979 -445.35 L 227.979 -435.35 L 256.979 -421.35 L 268.979 -416.35 L 274.979 -412.35 L 271.979 -407.35 L 262.979 -397.35 L 250.979 -384.35 L 184.979 -318.35 L 181.979 -314.35 L 176.979 -315.35 L 174.979 -317.35 L 159.979 -322.35 L 134.979 -329.35 L 106.979 -336.35 L 79.979 -340.35 L 57.979 -342.35 L 10.979 -342.35 L -10.021 -340.35 L -41.021 -334.35 L -80.018 -323.35 L -109.02 -312.35 L -134.02 -300.35 L -162.02 -285.35 L -176.02 -276.35 L -190.02 -265.35 L -201.02 -256.35 L -215.02 -244.35 L -232.02 -230.35 L -240.02 -221.35 L -250.02 -208.35 L -261.02 -194.35 L -272.02 -181.35 L -282.02 -166.35 L -292.02 -148.35 L -307.02 -120.34 L -317.02 -97.343 L -333.02 -46.343 L -338.02 -25.343 L -341.02 -5.343 L -343.02 19.657 L -343.02 65.657 L -339.02 101.657 L -335.02 119.657 L -325.02 154.657 L -313.02 188.657 L -302.02 212.657 L -292.02 230.657 L -276.02 257.657 L -248.02 291.657 L -236.02 305.657 L -229.02 313.657 L -218.02 323.657 L -204.02 334.657 L -191.02 345.657 L -175.02 357.657 L -158.02 367.657 L -112.02 391.657 L -97.018 397.657 L -57.021 410.657 L -34.021 416.657 L -9.021 420.657 L 28.979 423.657 L 51.979 423.657 L 82.979 420.657 L 108.979 416.657 L 141.979 407.657 L 183.979 393.657 L 209.979 380.657 L 232.979 367.657 L 250.979 357.657 L 264.979 346.657 L 277.979 335.657 L 288.979 326.657 L 303.979 313.657 L 313.979 303.657 L 322.979 292.657 L 331.979 282.657 L 343.979 266.657 L 353.979 253.657 L 365.979 232.657 L 383.979 198.657 L 391.979 178.657 L 402.979 144.657 L 408.979 123.657 L 414.979 92.657 L 416.979 77.657 L 417.979 61.657 L 417.979 31.657 L 412.979 -23.343 L 407.979 -48.343 L 400.979 -74.343 L 392.979 -99.34 L 392.979 -105.34 L 395.979 -110.34 L 406.979 -119.34 L 423.979 -136.34 L 435.979 -149.35 L 476.979 -190.35 L 481.979 -198.35 L 485.979 -200.35 L 489.979 -195.35 L 500.979 -171.35 L 509.979 -151.35 L 523.979 -110.34 L 530.979 -85.343 L 536.979 -56.343 L 542.979 -17.343 L 545.979 17.657 L 546.979 33.657 L 546.979 49.657 L 545.979 76.657 L 542.979 102.657 L 536.979 142.657 L 526.979 182.657 L 514.979 218.657 L 504.979 244.657 L 487.979 279.657 L 473.979 303.657 L 461.979 322.657 L 447.979 341.657 L 435.979 355.657 L 426.979 366.657 L 415.979 380.657 L 406.979 391.657 L 390.979 407.657 L 379.979 416.657 L 369.979 425.657 L 355.979 436.657 L 342.979 447.657 L 331.979 456.657 L 319.979 465.657 L 291.979 482.657 L 275.979 492.657 L 249.979 505.657 L 228.979 514.657 L 201.979 524.657 L 159.979 536.657 L 134.979 542.657 L 101.979 547.657 L 74.979 550.657 L 54.979 551.657 L 13.979 551.657 L -15.021 549.657 L -62.021 542.657 L -102.02 532.657 L -138.02 520.657 L -159.02 512.657 L -185.02 500.657 L -204.02 490.657 L -222.02 480.657 L -242.02 467.657 L -255.02 457.657 L -269.02 446.657 L -282.02 435.657 L -304.02 417.657 L -317.02 405.657 L -325.02 398.657 L -332.02 390.657 L -346.02 373.657 L -355.02 362.657 L -366.02 349.657 L -374.02 339.657 L -385.02 324.657 L -398.02 304.657 L -408.02 287.657 L -416.02 272.657 L -428.02 246.657 L -438.02 222.657 L -445.02 204.657 L -455.02 171.657 L -462.02 141.657 L -466.02 115.657 L -470.02 91.657 L -471.02 77.657 L -471.02 61.657 L -472.02 54.657 L -472.02 32.657 L -470.02 -5.343 L -468.02 -22.343 L -461.02 -64.343 L -450.02 -108.34 L -438.02 -141.34 L -429.02 -163.35 L -412.02 -198.35 L -401.02 -218.35 L -387.02 -241.35 L -375.02 -256.35 L -364.02 -270.35 L -352.02 -284.35 L -341.02 -297.35 L -331.02 -311.35 L -321.02 -322.35 L -311.02 -330.35 L -300.02 -339.35 L -290.02 -348.35 L -276.02 -359.35 L -265.02 -369.35 L -251.02 -380.35 L -236.02 -391.35 L -214.02 -404.35 L -198.02 -413.35 L -177.02 -424.35 L -150.02 -436.35 L -125.02 -445.35 L -99.02 -453.35 L -63.021 -461.35 L -27.021 -467.35 L 4.979 -470.35 L 27.979 -471.35 Z" style="stroke-width: 1; transform-origin: 68.981px 8.655px;" transform="matrix(0.999995, -0.003135, 0.003135, 0.999995, 0, 0)"></path>
        <path d="M 704.009 -841.86 L 707.009 -840.86 L 709.009 -823.86 L 714.009 -775.86 L 724.009 -686.86 L 728.009 -652.86 L 729.009 -650.86 L 771.009 -645.86 L 848.009 -637.86 L 892.009 -632.86 L 918.009 -630.86 L 918.009 -627.86 L 914.009 -622.86 L 906.009 -615.86 L 821.009 -530.86 L 814.009 -522.86 L 795.009 -503.86 L 787.009 -496.86 L 778.009 -486.86 L 747.009 -455.86 L 745.009 -455.86 L 743.009 -451.86 L 740.009 -450.86 L 738.009 -446.86 L 729.009 -437.86 L 727.009 -437.86 L 727.009 -435.86 L 719.009 -428.86 L 699.009 -408.86 L 692.009 -400.86 L 684.009 -394.86 L 665.009 -396.86 L 603.009 -403.86 L 578.009 -406.86 L 572.009 -402.86 L 560.009 -390.86 L 552.009 -383.86 L 538.009 -368.86 L 441.009 -271.86 L 440.009 -269.86 L 438.009 -269.86 L 438.009 -267.86 L 431.009 -261.86 L 427.009 -256.86 L 425.009 -256.86 L 423.009 -252.86 L 238.009 -67.852 L 237.009 -62.852 L 247.009 -36.852 L 252.009 -21.852 L 255.009 -2.852 L 258.009 22.148 L 258.009 41.148 L 255.009 73.148 L 250.009 91.148 L 242.009 114.148 L 231.009 137.148 L 220.009 155.148 L 208.009 169.148 L 199.009 180.148 L 187.009 192.148 L 173.009 202.148 L 156.009 214.148 L 139.009 223.148 L 119.009 231.148 L 100.009 237.148 L 84.009 241.148 L 59.009 244.148 L 32.009 244.148 L 1.009 240.148 L -18.991 234.148 L -38.991 226.148 L -59.991 216.148 L -71.988 208.148 L -87.988 196.148 L -100.98 185.148 L -108.98 177.148 L -128.99 151.148 L -138.99 133.148 L -148.99 114.148 L -154.99 97.148 L -161.99 71.148 L -164.99 53.148 L -165.99 39.148 L -165.99 24.148 L -163.99 5.148 L -158.99 -19.852 L -150.99 -45.852 L -142.99 -62.852 L -128.99 -86.852 L -118.98 -100.85 L -107.98 -113.85 L -100.98 -121.85 L -89.988 -131.85 L -71.988 -144.85 L -53.991 -155.86 L -38.991 -163.86 L -8.991 -173.86 L 9.009 -177.86 L 36.009 -180.86 L 55.009 -180.86 L 85.009 -176.86 L 103.009 -172.86 L 123.009 -165.86 L 138.009 -159.86 L 146.009 -156.86 L 313.009 -323.86 L 320.009 -331.86 L 327.009 -337.86 L 332.009 -343.86 L 469.009 -480.86 L 477.009 -487.86 L 483.009 -494.86 L 484.009 -496.86 L 484.009 -508.86 L 479.009 -551.86 L 473.009 -598.86 L 473.009 -605.86 L 476.009 -612.86 L 491.009 -626.86 L 547.009 -682.86 L 549.009 -685.86 L 551.009 -685.86 L 551.009 -687.86 L 556.009 -691.86 L 563.009 -699.86 L 693.009 -829.86 L 700.009 -837.86 L 704.009 -841.86 Z" style="stroke-width: 1; transform-origin: 80.011px 0.146px;" transform="matrix(0.999995, -0.003135, 0.003135, 0.999995, 0, 0)"></path>
    </g>
</svg>