<svg xmlns="http://www.w3.org/2000/svg" viewBox="0 0 75.158 80.507"  fill="#001132">
    <g transform="matrix(1.227038, 0, 0, 1.227038, -11.867909, -12.882583)">
        <rect width="18.692" height="8.88"  x="41.566"  y="62.958"></rect>
        <rect width="7.434" height="8.934"  x="63.29"  y="62.863"></rect>
        <rect width="18.692" height="8.88"  x="52.063"  y="51.64"></rect>
        <rect width="18.692" height="8.88"  x="9.678"  y="51.798"></rect>
        <rect width="18.692" height="8.88"  x="20.173"  y="63"></rect>
        <rect width="18.692" height="8.88"  x="30.79"  y="51.69"></rect>
        <rect width="7.565" height="8.934"  x="9.672"  y="62.922"></rect>
        <rect width="18.692" height="8.88"  x="41.612"  y="40.672"></rect>
        <rect width="7.434" height="8.934"  x="63.336"  y="40.578"></rect>
        <rect width="18.692" height="8.88"  x="20.219"  y="40.714"></rect>
        <rect width="7.565" height="8.934"  x="9.718"  y="40.636"></rect>
        <rect width="18.692" height="8.88"  x="52.267" style="transform-origin: 80% 45%;" y="29.395" transform="matrix(0.936746, -0.350011, 0.350011, 0.936746, -0.998292, -11.675919)"></rect>
        <rect width="18.692" height="8.88"  x="9.882"  y="29.553"></rect>
        <rect width="18.692" height="8.88"  x="30.994"  y="29.445"></rect>
    </g>
</svg>