<svg xmlns="http://www.w3.org/2000/svg" viewBox="0 0 75.102 80.643" fill="#001132">
    <rect width="22.936" height="10.896" x="39.199" y="59.337" style="stroke-width: 1.227;"></rect>
    <rect width="9.122" height="10.962" x="65.855" y="59.22" style="stroke-width: 1.227;"></rect>
    <rect width="22.936" height="10.896" x="52.079" y="45.449" style="stroke-width: 1.227;"></rect>
    <rect width="22.936" height="10.896" x="0.071" y="45.643" style="stroke-width: 1.227;"></rect>
    <rect width="22.936" height="10.896" x="12.949" y="59.388" style="stroke-width: 1.227;"></rect>
    <rect width="22.936" height="10.896" x="25.976" y="45.511" style="stroke-width: 1.227;"></rect>
    <rect width="9.283" height="10.962" x="0.064" y="59.293" style="stroke-width: 1.227;"></rect>
    <rect width="22.936" height="10.896" x="39.255" y="31.991" style="stroke-width: 1.227;"></rect>
    <rect width="9.122" height="10.962" x="65.912" y="31.876" style="stroke-width: 1.227;"></rect>
    <rect width="22.936" height="10.896" x="13.005" y="32.043" style="stroke-width: 1.227;"></rect>
    <rect width="9.283" height="10.962" x="0.12" y="31.947" style="stroke-width: 1.227;"></rect>
    <rect width="22.936" height="10.896" x="0.19" y="18.353" style="stroke-width: 1.227;"></rect>
    <rect width="22.936" height="10.896" x="26.095" y="18.22" style="stroke-width: 1.227;"></rect>
    <path d="M 49.64 16.333 L 55.365 25.653 L 74.878 13.608 L 69.177 4.337 L 49.64 16.333 Z"></path>
</svg>