<svg xmlns="http://www.w3.org/2000/svg" viewBox="0 0 75.158 80.507">
    <g transform="matrix(0.063692, 0, 0, 0.063692, 35.381779, 37.010151)">
        <path d="M 33.495 -581.6 L 38.495 -580.6 L 46.495 -570.6 L 57.495 -552.6 L 73.495 -528.6 L 85.495 -511.59 L 101.495 -488.59 L 125.495 -452.59 L 136.495 -435.59 L 150.495 -413.59 L 172.495 -379.59 L 186.495 -357.59 L 199.495 -336.59 L 207.495 -323.59 L 219.495 -303.59 L 229.495 -286.59 L 243.495 -262.59 L 257.495 -237.59 L 267.495 -220.59 L 281.495 -195.59 L 305.495 -151.59 L 315.495 -133.59 L 323.495 -117.6 L 335.495 -94.599 L 362.495 -40.599 L 373.495 -16.599 L 386.495 13.401 L 402.495 51.401 L 415.495 85.401 L 427.495 119.401 L 438.495 153.401 L 444.495 178.401 L 449.495 202.401 L 453.495 232.401 L 454.495 244.401 L 454.495 303.401 L 450.495 333.401 L 443.495 366.401 L 436.495 390.401 L 428.495 412.401 L 420.495 430.401 L 412.495 447.401 L 400.495 469.401 L 388.495 490.401 L 374.495 509.401 L 363.495 523.401 L 349.495 540.401 L 334.495 556.401 L 320.495 570.401 L 309.495 579.401 L 293.495 592.401 L 277.495 604.401 L 263.495 614.401 L 240.495 627.401 L 217.495 639.401 L 187.495 652.401 L 153.495 664.401 L 125.495 671.401 L 93.495 677.401 L 60.495 681.401 L 47.495 682.401 L 14.495 682.401 L -11.505 680.401 L -39.505 676.401 L -67.505 670.401 L -98.505 661.401 L -127.5 649.401 L -152.5 637.401 L -168.5 629.401 L -187.5 618.401 L -205.5 606.401 L -233.5 584.401 L -247.5 572.401 L -264.5 556.401 L -278.5 541.401 L -291.5 526.401 L -302.5 512.401 L -312.5 499.401 L -324.5 480.401 L -339.5 453.401 L -352.5 426.401 L -360.5 406.401 L -372.5 371.401 L -378.5 346.401 L -382.5 323.401 L -385.5 296.401 L -385.5 249.401 L -382.5 221.401 L -378.5 197.401 L -365.5 145.401 L -353.5 109.401 L -344.5 83.401 L -334.5 57.401 L -320.5 23.401 L -296.5 -30.599 L -279.5 -66.599 L -263.5 -98.599 L -253.5 -117.6 L -246.5 -130.59 L -234.5 -152.59 L -222.5 -175.59 L -213.5 -191.59 L -200.5 -214.59 L -188.5 -236.59 L -179.5 -251.59 L -170.5 -267.59 L -162.5 -280.59 L -145.5 -309.59 L -132.5 -329.59 L -111.5 -364.59 L -100.5 -381.59 L -90.505 -398.59 L -83.505 -408.59 L -70.505 -429.59 L -58.505 -448.59 L -51.505 -458.59 L -40.505 -475.59 L -16.505 -511.59 L -7.505 -524.6 L 11.495 -553.6 L 20.495 -566.6 L 27.495 -575.6 L 32.495 -580.6 L 33.495 -581.6 Z" fill="#001132"></path>
        <text style="fill: #f3e9d4; font-size: 439.6px; font-weight: 500" transform="matrix(0.670999, 0, 0, 0.678181, 51.545238, -38.469368)" x="-305.32" y="334.372">cal</text>
    </g>
</svg>