<svg xmlns="http://www.w3.org/2000/svg"  viewBox="0 0 75.158 80.507" fill="#001132">
    <g transform="matrix(0.999981, 0.006125, -0.006125, 0.999981, -10.171733, 7.918295)">
        <g transform="matrix(1, 0, 0, 1, -900.151062, -1194.774536)">
            <g>
                <path d="M 935.851 1252.2 C 931.476 1252.2 928.038 1248.75 928.038 1244.58 C 928.038 1240.31 931.579 1236.95 935.851 1236.95 C 940.226 1236.95 943.665 1240.41 943.665 1244.58 C 943.665 1248.75 940.226 1252.2 935.851 1252.2 Z M 951.791 1235.83 L 953.458 1231.06 L 949.707 1227.39 L 944.811 1229.03 C 943.561 1228.32 942.101 1227.81 940.747 1227.39 L 938.456 1222.93 L 933.247 1222.93 L 930.954 1227.39 C 929.495 1227.81 928.142 1228.32 926.891 1229.03 L 921.995 1227.39 L 918.348 1230.95 L 919.911 1235.74 C 919.182 1236.95 918.661 1238.36 918.244 1239.69 L 913.66 1241.93 L 913.66 1247.03 L 918.244 1249.26 C 918.661 1250.67 919.182 1252 919.911 1253.23 L 918.348 1258.01 L 921.995 1261.55 L 926.891 1260.03 C 928.142 1260.75 929.495 1261.25 930.954 1261.64 L 933.247 1266.12 L 938.456 1266.12 L 940.747 1261.64 C 942.207 1261.25 943.561 1260.75 944.811 1260.03 L 949.707 1261.64 L 953.353 1258.01 L 951.791 1253.31 C 952.52 1252.09 953.041 1250.78 953.458 1249.34 L 958.041 1247.11 L 958.041 1242.03 L 953.458 1239.8 C 953.041 1238.36 952.52 1237.06 951.791 1235.83 Z"></path>
                <path d="M 960.009 1217.02 C 955.634 1217.02 952.196 1213.56 952.196 1209.4 C 952.196 1205.13 955.737 1201.77 960.009 1201.77 C 964.384 1201.77 967.823 1205.23 967.823 1209.4 C 967.823 1213.56 964.384 1217.02 960.009 1217.02 Z M 975.949 1200.65 L 977.616 1195.88 L 973.865 1192.22 L 968.969 1193.84 C 967.719 1193.14 966.259 1192.63 964.905 1192.22 L 962.614 1187.75 L 957.405 1187.75 L 955.112 1192.22 C 953.653 1192.63 952.3 1193.14 951.049 1193.84 L 946.153 1192.22 L 942.506 1195.77 L 944.069 1200.55 C 943.34 1201.77 942.819 1203.19 942.402 1204.51 L 937.818 1206.75 L 937.818 1211.84 L 942.402 1214.07 C 942.819 1215.49 943.34 1216.81 944.069 1218.04 L 942.506 1222.82 L 946.153 1226.37 L 951.049 1224.85 C 952.3 1225.56 953.653 1226.06 955.112 1226.47 L 957.405 1230.95 L 962.614 1230.95 L 964.905 1226.47 C 966.365 1226.06 967.719 1225.56 968.969 1224.85 L 973.865 1226.47 L 977.511 1222.82 L 975.949 1218.13 C 976.678 1216.91 977.199 1215.59 977.616 1214.17 L 982.199 1211.94 L 982.199 1206.85 L 977.616 1204.62 C 977.199 1203.19 976.678 1201.88 975.949 1200.65 Z"></path>
            </g>
        </g>
    </g>
</svg>