<svg xmlns="http://www.w3.org/2000/svg" version="1.1" viewBox="0 0 2007 2048" width="695" height="709"
     fill="#001132">
    <path transform="translate(957)"
          d="m0 0h94l65 6 45 6 43 8 39 9 37 10 30 9 40 14 37 15 27 12 28 13 29 15 23 13 29 17 20 13 21 14 36 26 14 11 15 12 11 9 13 11 12 11 8 7 12 11 20 20 3 2v2l3 1 7 8 15 15 7 8 11 12 9 11 8 9 9 11 12 15 24 32 11 16 15 22 12 19 13 21 14 25 12 22 22 44 13 30 11 27 11 29 15 45 13 47 10 43 7 37 6 39 5 45 4 48v90l-5 62-5 43-6 37-8 40-9 38-14 49-14 42-18 46-12 27-9 20-22 44-9 16-15 26-24 38-11 16-16 23-13 17-14 18-11 14-9 10-9 11-11 12-7 8-15 16-8 8-2 3h-2v2l-8 7-24 24-11 9-15 14-11 9-16 13-14 11-13 10-36 26-19 12-15 10-25 15-26 15-43 22-33 15-31 13-29 11-44 15-43 12-41 10-48 9-42 6-50 5-28 2h-80l-50-4-45-5-38-6-36-7-46-11-45-13-43-15-28-11-24-10-35-16-32-16-22-12-27-16-18-11-33-22-36-26-14-11-17-14-10-8-14-12-11-10-8-7-12-11-41-41-7-8-8-8-9-11-11-12-5-7 761-1 7-1 1-1 22-1 8-2 12-1 2-2 9-1 11-4 16-5 8-4 13-5 21-12 14-9 12-9 10-8 8-7 29-29 6-9 6-7 7-10 11-17 12-22 10-21 9-22 9-30 6-28 2-10 2-18 1-5 1-213 16-47 12-35 10-30 14-41 17-50 21-62 14-41 21-62 15-43 12-36 25-74 15-43 14-42 14-41 5-15-258 1-2 12-4 14-5 22-3 12-1 1-2 10-4 16-4 18-2 6-3 14-4 17-3 13-1 1-2 11-1 1-2 10-4 16-1 7-2 5-4 18-4 14-3 12-2 11-6 24-1 1-1 10-2 4-1 8-2 5-4 18-2 7-1 5h-2v8l-2 5-3 14-6 24-2 9-1 5-2 7-6 24-2 5-5-1-6-18-2-7-3-12-4-11-4-17-3-9-3-11-3-9-7-23-5-18-7-23-10-35-6-20-4-13-2-8-7-23-6-21-14-47-7-25-13-43-5-17-7-25-3-8-265-1 8 20 5 14 5 12 11 27 15 39 11 27 6 16 16 41 19 48 15 38 16 41 14 36 30 76 13 33 22 56 12 30 17 44 13 33 9 23v183l-2 2-1 7-940 1-2-1-11-34-11-40-7-29-8-39-7-43-5-42-5-59v-96l6-67 6-46 9-50 10-43 10-37 11-35 13-38 16-40 17-38 25-50 24-42 14-22 13-20 16-23 10-14 26-34 11-13 9-11 13-15 11-12 12-13 10-10 7-8h2v-2l8-7 22-22 11-9 15-14 11-9 17-14 14-11 16-12 18-13 20-14 19-12 17-11 26-15 21-12 41-21 36-16 14-6 38-15 35-12 41-12 27-7 39-9 45-8 57-7z"></path>
    <style>
        @media (prefers-color-scheme: light) { :root { filter: none; } }
        @media (prefers-color-scheme: dark) { :root { filter: invert(100%); } }
    </style>
</svg>

