<?xml version="1.0" encoding="UTF-8"?>
<svg version="1.1" viewBox="0 0 2048 860" width="3090" height="1298" xmlns="http://www.w3.org/2000/svg" fill="#001132">
<path transform="translate(1625,175)" d="m0 0h137l9 30 11 38 8 26 17 58 18 61 2 6v4h2l2-11 9-37 13-53 15-61 14-58 1-3h133l-1 7-11 31-12 36-19 56-14 41-17 50-14 41-21 62-4 11-1 120-3 22-5 20-7 19-12 23-10 14-12 14-13 12-11 8-15 9-16 7-19 5-13 2h-1718v-169l1705-1 4-1 1-80-4-1 3-3v-19l-10-25-39-99-14-36-26-66-9-22-6-16-11-28-10-26-5-12zm-865 478-12 2-9 5-7 8-2 8 1 10 4 8 7 6 13 6 15 5 6 3v6l-3 2h-11l-5-3-2-5h-26l1 10 5 8 7 6 6 3 10 2h17l12-3 6-3 6-5 4-7v-18l-4-8-7-6-15-6-17-6-2-2v-4l4-2h7l4 2 3 5h25v-7l-3-7-7-7-9-4-10-2zm681 0-14 3-9 5-6 9v17l5 8 6 5 16 7 16 6 2 2v5l-3 2h-12l-3-1-3-7h-26v7l4 9 4 5 9 5 11 3h18l12-3 9-5 5-6 3-11-1-10-3-7-1-2h-2v-2h-2v-2l-15-7-20-7-3-1 2-6 3-1h7l4 2 2 5h26l-1-10-5-8-10-6-13-3zm-1296 1-1 1v87h26v-87l-1-1zm107 0-1 1v87h23l2-46 30 45 1 1h24v-88h-23l-1 47-30-45-1-1zm161 0v88h38l12-1 11-4 9-6 6-7 4-9 2-11v-12l-2-11-5-10-5-6-9-6-12-4zm159 0v52l1 12 5 12 7 7 8 4 9 2h21l11-3 6-3 6-5 5-10 2-9v-59h-26l-1 55-3 9-5 3h-10l-6-2-3-9v-55l-1-1zm301 0v21h22v67h25v-67h22v-20l-1-1zm143 0-1 1v87h26v-30l13 1 5 3 4 10 4 15 1 1h25l-2-9-5-17-4-8-5-4-6-2 10-7 5-8v-16l-4-8-9-6-7-2zm151 0-1 1v87h26v-87l-1-1zm106 0v88h62v-21h-37v-13h33v-20l-32-1-1-12h37v-21z" />
<path transform="translate(263,38)" d="m0 0h30l23 2 26 4 24 6 20 7 22 10 14 8 16 11 14 12 14 14 7 9 10 15 8 16 6 15 4 16 3 19v19h-143l-3-9-4-13-8-15-10-11-13-8-12-5-14-3-8-1h-18l-16 2-12 3-14 7-9 7h-2v2l-6 5-9 13-7 14-5 14-5 23-2 15v45l4 26 6 21 6 14 8 12 9 10 8 7 12 7 11 4 9 2 9 1h25l16-3 13-5 10-6 10-9 7-10 6-12 4-14 3-17h143v13l-3 22-5 22-7 21-10 21-11 17-8 10-12 13-14 12-15 10-11 6-16 8-30 10-19 4-22 3-24 2h-33l-31-3-25-5-17-5-25-10-17-9-11-7-14-10-13-12-7-6-7-8-12-15-10-15-13-25-6-15-6-19-4-18-3-19-2-19v-50l3-28 6-27 5-16 6-16 10-21 12-19 10-13 9-10 6-7 8-7 13-11 15-10 18-10 21-9 18-6 25-6 23-3z" />
<path transform="translate(1370,44)" d="m0 0 2 1 1 173 9-11 11-10 14-10 16-8 10-4 12-3 14-2 19-1 22 2 21 5 16 6 16 9 11 9 5 4 7 8 8 10 9 15 8 17 6 18 5 23 3 24v59l-3 23-5 22-6 18-8 16-9 15-9 11-9 10-14 11-15 9-20 8-21 5-16 2h-19l-24-3-12-4-13-6-13-8-11-9-12-11-7-8-2-1-3 39-2 5h-121l-1-1v-476zm57 222-13 2-12 5-11 9-8 8-10 15-1 3v82l8 12 12 13 10 8 8 4 12 3h17l13-4 10-7v-2l3-1 6-8 7-14 4-17 2-18v-24l-3-24-4-13-6-12-8-9-11-7-9-3-5-1z" />
<path transform="translate(720,168)" d="m0 0h47l21 3 22 5 18 6 19 9 16 10 14 11 9 8 7 8 10 13 9 15 7 14 6 17 5 21 3 27v30l-3 25-6 25-10 24-12 19-11 13-9 10-11 9-14 10-19 10-21 8-18 5-15 3-16 2h-49l-22-3-25-6-19-7-16-8-15-9-14-11-16-16-11-15-8-14-5-10-7-20-4-17-2-13-1-12v-35l2-19 4-20 8-24 8-16 9-14 8-10 9-10 7-7 17-13 16-9 12-6 20-7 18-5 18-3zm13 99-14 4-10 6-5 5v2h-2l-7 11-6 16-3 16-1 9v26l2 15 4 16 7 14 9 10 7 6 9 4 9 2h23l11-3 8-4 10-9 7-11 5-13 4-20 1-18-1-22-4-20-3-10-7-12-9-10-9-6-9-3-5-1z" />
<path transform="translate(998,45)" d="m0 0h131l1 348 3 14 4 6 4 3 10 3 11 1h29l1 1v101h-44l-43-3-24-4-19-5-17-7-12-8-10-9-9-12-7-15-4-13-3-15-2-16z" />
<path transform="translate(438,675)" d="m0 0h13l9 3 7 8 2 5v15l-5 10-6 4-5 1h-15z" />
<path transform="translate(1041,674)" d="m0 0h14l5 5v8l-5 5h-14z" />
</svg>
